<?xml version="1.0" encoding="utf-8"?>
<!-- Generator: Adobe Illustrator 19.1.0, SVG Export Plug-In . SVG Version: 6.00 Build 0)  -->
<!DOCTYPE svg PUBLIC "-//W3C//DTD SVG 1.1//EN" "http://www.w3.org/Graphics/SVG/1.1/DTD/svg11.dtd">
<svg version="1.1" id="Layer_1" xmlns="http://www.w3.org/2000/svg" xmlns:xlink="http://www.w3.org/1999/xlink" x="0px" y="0px"
	 viewBox="-290 462.8 228.7 38.6" style="enable-background:new -290 462.8 228.7 38.6;" xml:space="preserve">
<style type="text/css">
	.st0{fill:#FFFFFF;}
	.st1{clip-path:url(#SVGID_2_);fill:#FFFFFF;}
</style>
<g>
	<polyline class="st0" points="-264.7,488.7 -264.6,488.6 -264.7,488.7 	"/>
	<polyline class="st0" points="-264.9,488.4 -264.9,488.3 -264.9,488.4 	"/>
	<path class="st0" d="M-264,488.3v0.4h0.1C-264,488.5-263.9,488.4-264,488.3"/>
	<path class="st0" d="M-266.1,487.8c0.1,0.1-0.1,0.2,0,0.2V487.8"/>
	<polyline class="st0" points="-264.7,487.6 -264.6,487.7 -264.7,487.6 -264.7,487.6 	"/>
	<polyline class="st0" points="-263.2,487.6 -263.2,487.7 -263.1,487.7 -263,487.6 -263.2,487.6 	"/>
	<polyline class="st0" points="-264.1,487.4 -264.1,487.4 -264.1,487.4 	"/>
	<path class="st0" d="M-264.3,487.4C-264.4,487.5-264.3,487.5-264.3,487.4L-264.3,487.4"/>
	<polyline class="st0" points="-263.4,487.4 -263.4,487.3 -263.4,487.4 	"/>
	<path class="st0" d="M-264,487.2l0.1,0.1C-263.8,487.3-263.8,487.2-264,487.2C-263.8,487.3-263.9,487.2-264,487.2
		C-263.9,487.3-263.9,487.2-264,487.2"/>
	<path class="st0" d="M-264.5,487.2C-264.4,487.2-264.4,487.2-264.5,487.2"/>
	<polyline class="st0" points="-263.6,487.1 -263.7,487.2 -263.6,487.2 -263.6,487.1 	"/>
	<path class="st0" d="M-261.8,487v0.1V487c0,0.1-0.1,0.2-0.1,0.2h0.1c0,0,0-0.1,0,0V487"/>
	<path class="st0" d="M-264.4,487.1l0.1-0.1L-264.4,487.1z"/>
	<path class="st0" d="M-264.3,486.8c0.1,0,0,0.1,0,0.1l0.1-0.1H-264.3"/>
	<path class="st0" d="M-265.5,486.9h-0.1v-0.1c0,0.1-0.2,0.4-0.3,0.3C-265.9,487.4-265.5,486.9-265.5,486.9l0.1-0.1L-265.5,486.9"/>
	<path class="st0" d="M-263.1,486.7L-263.1,486.7c-0.1,0.3,0,0.2,0.1,0.1L-263.1,486.7"/>
	<polyline class="st0" points="-262.6,486.7 -262.5,486.7 -262.5,486.6 -262.6,486.7 -262.5,486.6 -262.6,486.7 	"/>
	<path class="st0" d="M-255.8,486.7L-255.8,486.7v0.2V486.7L-255.8,486.7c0,0.2,0,0.3,0.1,0.2h-0.1V486.7l0.1,0.2l0.1-0.1v0.1
		c0-0.1,0.1-0.3-0.1-0.3c0.1,0,0,0.1,0,0c0,0.1-0.1,0,0,0L-255.8,486.7"/>
	<path class="st0" d="M-266.4,486.5C-266.5,486.4-266.4,486.6-266.4,486.5"/>
	<path class="st0" d="M-262.2,486.4C-262.1,486.5-262.2,486.4-262.2,486.4v-0.1V486.4"/>
	<polyline class="st0" points="-261.9,486.2 -261.9,486.2 -261.8,486.2 -261.9,486.2 	"/>
	<path class="st0" d="M-258.5,486.2L-258.5,486.2c0.2,0.1,0.2,0.1,0.2,0h0.1v-0.1L-258.5,486.2"/>
	<polyline class="st0" points="-254,486.2 -254,486.2 -254,486.2 -254,486.2 	"/>
	<polyline class="st0" points="-260.2,486.4 -260,486.3 -260.2,486.3 -260.2,486.2 -260.2,486.4 	"/>
	<path class="st0" d="M-258.5,486.3v-0.2C-258.5,486.1-258.6,486.3-258.5,486.3"/>
	<path class="st0" d="M-262.1,486.3v0.2c0-0.1,0.1-0.1,0.1-0.2l-0.1,0.1v-0.3V486.3v-0.2V486.3v-0.2V486.3"/>
	<polyline class="st0" points="-265.2,486.1 -265.2,486.3 -265.2,486.1 	"/>
	<polyline class="st0" points="-258.4,486 -258.4,486.1 -258.4,486 -258.3,486.1 -258.4,486 	"/>
	<path class="st0" d="M-256.1,486c0,0.1,0.1,0.3,0.1,0.3h0.2L-256.1,486L-256.1,486L-256.1,486"/>
	<path class="st0" d="M-255.9,485.9C-256.1,486-255.9,485.9-255.9,485.9"/>
	<path class="st0" d="M-265,485.9L-265,485.9c-0.1,0.1-0.2,0.3-0.2,0.3l0.1-0.1C-265.1,486-265,486-265,485.9h0.3H-265"/>
	<path class="st0" d="M-255.8,485.9l0.1,0.2v0.1L-255.8,485.9L-255.8,485.9C-255.7,485.8-255.7,485.9-255.8,485.9l0.1-0.1
		L-255.8,485.9"/>
	<polyline class="st0" points="-256.2,485.8 -256.2,486.1 -256.1,486.2 -256.2,485.8 	"/>
	<path class="st0" d="M-256,485.7L-256,485.7L-256,485.7C-255.9,485.7-255.9,485.8-256,485.7"/>
	<path class="st0" d="M-259.7,485.7C-259.8,485.8-259.7,485.8-259.7,485.7L-259.7,485.7l0.1,0.1L-259.7,485.7"/>
	<path class="st0" d="M-258.5,486L-258.5,486l-0.1-0.2C-258.6,485.9-258.6,486-258.5,486"/>
	<polyline class="st0" points="-256.3,485.8 -256.4,485.6 -256.3,485.8 	"/>
	<polyline class="st0" points="-257.5,485.7 -257.5,485.7 -257.5,485.7 	"/>
	<polyline class="st0" points="-261.7,485.6 -261.5,485.7 -261.5,485.5 -261.7,485.4 -261.7,485.6 	"/>
	<polyline class="st0" points="-260.2,485.4 -260.2,485.6 -260.2,485.4 	"/>
	<polyline class="st0" points="-265.8,485.4 -265.8,485.6 -265.8,485.5 -265.8,485.6 -265.8,485.4 	"/>
	<path class="st0" d="M-261.4,485.4L-261.4,485.4C-261.3,485.6-261.4,485.5-261.4,485.4"/>
	<path class="st0" d="M-266.4,485.4C-266.4,485.3-266.3,485.4-266.4,485.4"/>
	<path class="st0" d="M-265.7,485.3C-265.7,485.3-265.9,485.4-265.7,485.3"/>
	<path class="st0" d="M-267,485.3C-267,485.4-267.2,485.4-267,485.3v0.2V485.3L-267,485.3L-267,485.3l0.1,0.1L-267,485.3"/>
	<path class="st0" d="M-256.5,485.2l0.1,0.1v0.1c0.1,0-0.1,0,0,0.1h0.1c0,0.2,0,0.1,0.1,0.1l0.1,0.1v-0.2v0.1l-0.3-0.2L-256.5,485.2
		L-256.5,485.2"/>
	<path class="st0" d="M-265.5,485.3v-0.1C-265.7,485.2-265.6,485.3-265.5,485.3"/>
	<path class="st0" d="M-260.1,485.3C-260.2,485.3-260.1,485.3-260.1,485.3C-260.2,485.3-260.5,485.3-260.1,485.3l0.1-0.1V485
		L-260.1,485.3"/>
	<polyline class="st0" points="-264.4,485.2 -264.3,485.2 -264.4,485.2 	"/>
	<polyline class="st0" points="-257,484.9 -257,485 -257,484.9 -257,484.9 	"/>
	<path class="st0" d="M-264.8,485l-0.2,0.2h0.1l0.1,0.2h0.1l0.1-0.1C-264.7,485.4-264.7,485.1-264.8,485l0.1,0.1
		C-264.6,485-264.7,484.9-264.8,485"/>
	<polyline class="st0" points="-264.2,485 -264.2,485.1 -264.2,485 -264,484.8 -264.3,484.8 -264.2,485 	"/>
	<path class="st0" d="M-258,485l0.1,0.1v0.3v-0.1h0.1c0.1-0.1,0.2,0,0.2,0l0.1-0.1c-0.1,0,0,0,0,0L-258,485c0-0.2,0-0.3-0.1-0.3
		C-258.1,484.8-258.1,484.9-258,485"/>
	<path class="st0" d="M-263,484.6c0,0.1,0,0.2-0.1,0.2c0,0.1,0.1,0.3,0.1,0.3h-0.1c0,0.1,0.1,0.1,0,0.2c-0.1,0.1,0.1,0.1,0.2,0.2
		c0,0.1,0.4,0.3,0.5,0.1v-0.2c0,0.1,0.1-0.1,0.1-0.1c0,0.1,0.1-0.1,0.1-0.1v-0.1l-0.1,0.1c-0.1-0.1,0.1-0.2,0-0.2v-0.1
		c0,0.1,0.2-0.1,0.2-0.1l-0.1-0.1l0.1,0.1h-0.2l-0.3,0.4c0-0.2-0.1-0.3-0.2-0.4h0.1l-0.1-0.1h0.1l-0.1-0.1L-263,484.6"/>
	<path class="st0" d="M-262.7,484.5v0.2h0.1v0.1c0-0.1,0.1-0.1,0.1-0.2L-262.7,484.5"/>
	<path class="st0" d="M-257.8,484.4l0.1,0.1l0.1-0.1c-0.1,0.2,0.1,0.2,0.2,0.2v0.2v-0.1v0.1l0.1-0.1c0,0.1,0.1,0.1,0.1-0.1h-0.1
		l0.1-0.2h-0.1l-0.1-0.1c-0.1,0.1-0.1,0.1-0.1,0l-0.1,0.1c-0.1,0-0.2,0-0.2-0.1V484.4"/>
	<path class="st0" d="M-258.7,484.3l0.1,0.1C-258.6,484.2-258.7,484.3-258.7,484.3"/>
	<path class="st0" d="M-254.4,484.2C-254.4,484.2-254.5,484.3-254.4,484.2"/>
	<path class="st0" d="M-257.9,484.3c0,0-0.2,0.1-0.1,0.1L-257.9,484.3v0.2C-257.9,484.8-257.6,484.5-257.9,484.3"/>
	<path class="st0" d="M-259.2,484.2c0,0.2,0.1,0.1,0.1,0.2l0.3-0.2c-0.1,0-0.2-0.1-0.3-0.1L-259.2,484.2"/>
	<path class="st0" d="M-254.3,484.3L-254.3,484.3C-254.3,484.2-254.4,484.3-254.3,484.3"/>
	<path class="st0" d="M-266.8,483.9C-266.7,483.9-266.7,483.9-266.8,483.9"/>
	<polyline class="st0" points="-266.6,483.9 -266.6,483.9 -266.6,483.9 	"/>
	<polyline class="st0" points="-263.1,483.8 -263.2,483.9 -263.1,483.8 -263.1,483.8 	"/>
	<polyline class="st0" points="-260.3,483.7 -260.3,483.7 -260.3,483.7 	"/>
	<polyline class="st0" points="-266.7,483.6 -266.5,483.7 -266.6,483.8 -266.5,483.9 -266.4,483.8 -266.4,483.7 -266.6,483.5 
		-266.7,483.6 	"/>
	<polyline class="st0" points="-262.7,483.4 -262.6,483.4 -262.7,483.4 -262.5,483.5 -262.6,483.4 -262.7,483.4 	"/>
	<polyline class="st0" points="-263.4,483.4 -263.4,483.4 -263.4,483.4 -263.4,483.4 	"/>
	<path class="st0" d="M-263,483.5C-263.1,483.5-263.1,483.6-263,483.5v0.2l0.1,0.1h0.1l0.1-0.1c0,0-0.1,0.2,0,0v0.1h0.2
		c0-0.2-0.2-0.1-0.2-0.2C-262.6,483.5-262.8,483.5-263,483.5L-263,483.5l0.2-0.1C-262.8,483.3-263.2,483.4-263,483.5"/>
	<path class="st0" d="M-259.6,483.4v0.1V483.4z"/>
	<path class="st0" d="M-259.7,483.4c0-0.1,0.1-0.2,0-0.1V483.4v-0.2h-0.1C-259.8,483.4-259.7,483.4-259.7,483.4"/>
	<path class="st0" d="M-262.4,483.3L-262.4,483.3L-262.4,483.3C-262.4,483.2-262.5,483.2-262.4,483.3"/>
	<path class="st0" d="M-259.2,483.2c0,0-0.1,0.2-0.1,0.3L-259.2,483.2L-259.2,483.2"/>
	<path class="st0" d="M-261.5,483.2c0,0.1-0.2,0.1-0.2,0.2l0.1,0.1v0.1l-0.2,0.2l0.3,0.1l0.1-0.1l0.1,0.1h0.2l0.1,0.1
		c0-0.1,0-0.3-0.1-0.3v0.1v-0.4v0.1c0,0-0.1-0.1,0-0.1h-0.3C-261.3,483.4-261.4,483.2-261.5,483.2
		C-261.6,483.3-261.4,483.2-261.5,483.2"/>
	<path class="st0" d="M-260,483.2C-260.1,483.3-260,483.2-260,483.2"/>
	<path class="st0" d="M-261.4,483.2l0.1,0.1C-261.2,483.2-261.3,483.2-261.4,483.2"/>
	<path class="st0" d="M-262,483.1v0.1V483.1v0.3h0.1c0-0.1,0-0.1,0,0l-0.1-0.1C-261.9,483.3-262,483.2-262,483.1"/>
	<path class="st0" d="M-263.4,483.1c-0.2,0.1,0,0.2,0,0.2V483.1"/>
	<path class="st0" d="M-260.3,483.1c0,0.1,0,0.3,0.1,0.1v0.1L-260.3,483.1"/>
	<path class="st0" d="M-260.1,483c0,0,0,0.3,0.1,0.2c0.1,0.1,0.1,0.2,0.2,0.2l-0.1-0.1l0.1-0.1v-0.1c0,0-0.1,0.1,0,0h-0.1
		c0.1,0,0,0,0,0S-259.9,483-260.1,483"/>
	<polyline class="st0" points="-262.3,482.9 -262.2,482.9 -262.3,482.9 	"/>
	<polyline class="st0" points="-259.7,482.8 -259.7,482.8 -259.7,482.8 	"/>
	<path class="st0" d="M-263.1,482.8C-263.1,482.9-263.1,482.8-263.1,482.8"/>
	<path class="st0" d="M-259.1,482.9c0,0.1,0.2,0.3,0.2,0.4v0.1v-0.2v0.1v-0.5C-259,483-259,482.9-259.1,482.9l0.1-0.2L-259.1,482.9"
		/>
	<polyline class="st0" points="-266,482.8 -265.9,482.8 -266,482.8 	"/>
	<polyline class="st0" points="-260.3,482.8 -260.1,482.9 -260,482.8 -260,482.7 -260.1,482.7 -260.2,482.6 -260.3,482.8 	"/>
	<path class="st0" d="M-258.8,482.7h0.3c0-0.1-0.1-0.1-0.2-0.1L-258.8,482.7"/>
	<polyline class="st0" points="-258.5,482.6 -258.4,482.7 -258.5,482.6 	"/>
	<polyline class="st0" points="-259.9,482.6 -259.9,482.6 -259.9,482.6 	"/>
	<polyline class="st0" points="-259.1,482.5 -259,482.6 -259.1,482.5 	"/>
	<path class="st0" d="M-260.1,482.6v-0.1C-260.2,482.6-260.2,482.6-260.1,482.6"/>
	<polyline class="st0" points="-259.2,482.6 -259.1,482.5 -259.2,482.6 	"/>
	<path class="st0" d="M-259.6,482.4L-259.6,482.4c-0.1,0.2-0.2,0.2-0.2,0.3c0,0,0.2,0,0,0.1l0.2-0.1V482.4"/>
	<path class="st0" d="M-262.6,482.4c0-0.1-0.1,0-0.1,0.1L-262.6,482.4c0.1,0.1,0.1,0.2,0.1,0H-262.6"/>
	<path class="st0" d="M-259.5,482.3C-259.5,482.3-259.6,482.5-259.5,482.3"/>
	<polyline class="st0" points="-259.9,482.3 -259.8,482.4 -259.9,482.3 -259.9,482.3 	"/>
	<path class="st0" d="M-258.6,482.3c0.1,0.1,0.1,0,0.1,0.1v-0.1H-258.6"/>
	<polyline class="st0" points="-258.7,482 -258.7,482 -258.7,482 -258.7,482 	"/>
	<path class="st0" d="M-260.1,481.9C-260.2,481.9-260.2,481.9-260.1,481.9C-260.3,482.1-260.1,481.9-260.1,481.9"/>
	<path class="st0" d="M-260,482C-260,482-260.1,482-260,482"/>
	<polyline class="st0" points="-257.2,481.9 -257.2,482.1 -257.2,481.9 	"/>
	<path class="st0" d="M-264.1,481.8C-264.1,481.7-264,481.7-264.1,481.8L-264.1,481.8"/>
	<polyline class="st0" points="-259.5,481.7 -259.3,481.8 -259.3,481.7 -259.5,481.7 -259.5,481.6 -259.5,481.7 	"/>
	<path class="st0" d="M-263.7,481.7C-263.7,481.8-263.7,481.8-263.7,481.7l0.1-0.2L-263.7,481.7"/>
	<path class="st0" d="M-257,481.6v0.2h-0.1v-0.1C-257.1,481.7-256.9,481.8-257,481.6L-257,481.6c0.2-0.1,0.1-0.2,0-0.2V481.6"/>
	<path class="st0" d="M-258,482.8C-258,482.9-258,482.8-258,482.8"/>
	<path class="st0" d="M-257.9,482.4l0.1,0.1C-257.9,482.6-257.9,482.5-257.9,482.4v0.1V482.4C-257.8,482.4-257.8,482.4-257.9,482.4"
		/>
	<path class="st0" d="M-258.9,481.6l-0.1-0.1l0.3,0.3c0-0.2,0.3,0.2,0.3,0.2l0.1-0.2h0.1v0.1l-0.1,0.1v0.1V482v0.1
		c0-0.1,0.1,0.1,0.1,0.1h-0.1c0,0.1,0.2,0.2,0.1,0.3h-0.1l-0.1,0.1c-0.1,0.3-0.1,0.1-0.2,0.1v-0.1h-0.1v0.4c0,0,0.2,0,0.1-0.1
		l0.1-0.1c0,0.1,0.1,0.1,0.1,0l0.1,0.2v0.1l0.3,0.1c0,0,0.4-0.4,0.2-0.5v-0.1h-0.1c0,0-0.1,0.1-0.1,0c0.1,0,0.1-0.2,0.1-0.2v-0.1
		h-0.1c0.2,0-0.1-0.3-0.2-0.2c0,0,0-0.4-0.2-0.3l-0.2-0.1l-0.1-0.2c-0.1,0,0.1,0.2,0,0.2C-258.7,481.6-258.8,481.6-258.9,481.6v0.1
		h0.1h-0.1v0.1V481.6C-259,481.7-259,481.6-258.9,481.6h-0.2C-258.8,481.4-258.9,481.5-258.9,481.6"/>
	<polyline class="st0" points="-259.8,481.5 -259.8,481.5 -259.8,481.5 	"/>
	<polyline class="st0" points="-257.3,481.5 -257.3,481.5 -257.3,481.5 	"/>
	<path class="st0" d="M-259.7,481.4v0.1C-259.6,481.4-259.7,481.4-259.7,481.4"/>
	<path class="st0" d="M-257.6,481.4v0.2h0.1c0,0.1,0,0.2,0.1,0c0,0.1,0,0.1,0.1,0.1h-0.1c0.1,0,0.3-0.1,0.3-0.2s-0.2,0-0.3,0v-0.1
		h-0.1c0-0.2-0.1-0.1-0.1-0.1V481.4l0.1-0.1L-257.6,481.4"/>
	<polyline class="st0" points="-264.5,481.4 -264.5,481.3 -264.5,481.4 	"/>
	<path class="st0" d="M-257.3,481.2L-257.3,481.2C-257.3,481.3-257.2,481.2-257.3,481.2"/>
	<polyline class="st0" points="-263.7,481.2 -263.7,481.2 -263.7,481.2 	"/>
	<path class="st0" d="M-257.5,481.2C-257.5,481.2-257.4,481.3-257.5,481.2"/>
	<polyline class="st0" points="-262.6,481.2 -262.5,481.1 -262.6,481.2 	"/>
	<path class="st0" d="M-262.7,481.8C-262.6,481.9-262.7,481.8-262.7,481.8"/>
	<path class="st0" d="M-262.5,481.4h-0.2c-0.1-0.2-0.1,0.2-0.1,0.2l-0.1,0.1h-0.1l0.1,0.1h-0.2v0.1h-0.1c0,0,0,0.3,0.1,0.1v0.1
		c-0.1-0.1-0.2,0.1-0.2,0.2v0.1l-0.2-0.1v0.1h-0.1v-0.1c-0.1,0-0.1,0.2-0.2,0.1v0.2h0.1v0.1h0.1v0.2l0.2,0.1h-0.1l0.2-0.3v-0.1
		c0,0.1,0.1,0,0.1-0.1l0.3-0.1c-0.1-0.1,0-0.1,0-0.3c0.2,0,0.1,0.1,0.1,0.1c0.1,0,0,0,0.1-0.1h0.1V482h0.2c0.1-0.3-0.1-0.4,0.1-0.4
		c0-0.1,0-0.2,0.1-0.1v0.1c0.2,0,0-0.2,0-0.2h0.2l0.1-0.1c-0.1,0-0.1-0.1-0.1-0.2C-262.3,481.1-262.5,481.4-262.5,481.4"/>
	<path class="st0" d="M-264,481.1c0,0,0.1,0.1,0,0.2v-0.1v0.2c0.1,0.2,0.2,0,0.1-0.2C-263.9,481.2-263.9,481-264,481.1"/>
	<path class="st0" d="M-262.4,481C-262.4,481.1-262.4,481.1-262.4,481L-262.4,481L-262.4,481"/>
	<polyline class="st0" points="-256.9,480.9 -256.8,481.1 -256.8,481 -256.7,481 -256.7,480.9 -256.9,480.9 	"/>
	<path class="st0" d="M-264.2,480.8c-0.2,0.1,0.1,0.4,0.1,0.3l-0.1-0.1h0.1L-264.2,480.8"/>
	<path class="st0" d="M-264.2,480.7C-264.2,480.8-264.1,480.7-264.2,480.7"/>
	<path class="st0" d="M-262.5,480.5L-262.5,480.5L-262.5,480.5C-262.6,480.5-262.6,480.6-262.5,480.5l-0.1,0.2v0.1h-0.1
		c0,0.1-0.1,0.2-0.1,0.1c-0.1,0-0.3,0.2-0.2,0.3c0.2,0,0.2-0.1,0.3-0.3l-0.1,0.1l0.1-0.1l0.2-0.1l-0.1-0.1v-0.1l0.2-0.2
		C-262.4,480.5-262.5,480.5-262.5,480.5"/>
	<path class="st0" d="M-262.9,480.5c0.1,0.1,0,0.1,0,0.2h0.2c0.2-0.1,0-0.2,0.1-0.3L-262.9,480.5"/>
	<path class="st0" d="M-263.5,480.3L-263.5,480.3L-263.5,480.3L-263.5,480.3C-263.3,480.4-263.6,480.4-263.5,480.3L-263.5,480.3
		L-263.5,480.3"/>
	<path class="st0" d="M-260.8,480.3l-0.2,0.2h0.1C-260.8,480.5-260.8,480.4-260.8,480.3"/>
	<path class="st0" d="M-262.3,480.2c0,0.1,0.1,0.1,0.1-0.1L-262.3,480.2"/>
	<polyline class="st0" points="-258.6,480.1 -258.6,480.1 -258.6,480.1 	"/>
	<polyline class="st0" points="-257.3,480 -257.2,479.9 -257.3,479.8 -257.3,480 	"/>
	<polyline class="st0" points="-257.7,479.9 -257.6,480 -257.7,479.9 	"/>
	<polyline class="st0" points="-260.9,479.9 -260.8,480 -260.9,479.9 	"/>
	<path class="st0" d="M-260.1,479.9v0.1l-0.1,0.1v0.1h0.1v-0.1C-259.9,480-260,479.9-260.1,479.9"/>
	<polyline class="st0" points="-257.9,480 -257.9,479.8 -257.9,480 	"/>
	<path class="st0" d="M-260.9,479.9C-261,479.8-261,479.9-260.9,479.9"/>
	<path class="st0" d="M-256.1,479.9C-256.1,479.9-256,479.9-256.1,479.9h0.2l-0.1,0.2l0.1,0.1c-0.1,0-0.1-0.1-0.2-0.1v0.1
		c0.1,0,0.1,0.1,0.2,0.1l0.3-0.1c0-0.1,0-0.1-0.1,0V480l-0.1-0.1l-0.2-0.1L-256.1,479.9"/>
	<path class="st0" d="M-256.4,479.8c0.1,0.1,0,0.2,0.1,0.2L-256.4,479.8"/>
	<path class="st0" d="M-257.5,479.8c0,0,0,0.1,0.1,0.1L-257.5,479.8"/>
	<path class="st0" d="M-256.1,479.7C-256.2,479.8-256.1,479.9-256.1,479.7"/>
	<path class="st0" d="M-256.9,479.9C-256.9,480-257,479.9-256.9,479.9l-0.1,0.2v0.1h0.2L-256.9,479.9c0.1,0.2,0.2,0.2,0.2,0.3
		l0.1-0.1c-0.1,0,0.1,0.1,0.2,0.1h0.2v0.1c0-0.2-0.1-0.1-0.1-0.1v-0.1l-0.1,0.1l-0.1-0.2h-0.1c0-0.1,0-0.1,0.1-0.1h-0.1
		c-0.1,0-0.2,0-0.2-0.1L-256.9,479.9"/>
	<polyline class="st0" points="-260.7,479.8 -260.7,479.8 -260.7,479.8 	"/>
	<polyline class="st0" points="-258.9,479.7 -258.9,479.7 -258.9,479.7 	"/>
	<polyline class="st0" points="-259.1,479.7 -259.1,479.7 -259.1,479.7 	"/>
	<path class="st0" d="M-257.1,479.7v0.3l0.1-0.1c0,0.1,0.1-0.1,0.1-0.1L-257.1,479.7"/>
	<path class="st0" d="M-261.5,479.5v0.2h-0.2v-0.1l-0.1,0.2h-0.1c0,0.1,0.2,0.3,0.3,0.2c0.1,0.2,0.5-0.1,0.3-0.1v-0.1h-0.1
		c0.1,0,0-0.1,0-0.1L-261.5,479.5"/>
	<path class="st0" d="M-257.9,479.5v0.1l0.1,0.1c0,0,0.2,0,0-0.1L-257.9,479.5"/>
	<path class="st0" d="M-259.4,479.7L-259.4,479.7L-259.4,479.7h-0.2v0.1h-0.1v0.1h0.2l0.1-0.3C-259.4,479.6-259.5,479.5-259.4,479.7
		"/>
	<path class="st0" d="M-258,479.6C-257.8,479.6-258,479.6-258,479.6"/>
	<polyline class="st0" points="-260.7,479.5 -260.7,479.6 -260.7,479.5 	"/>
	<path class="st0" d="M-262.9,479.6c0.1,0.1,0.1,0,0.1-0.1L-262.9,479.6"/>
	<path class="st0" d="M-257.9,479.5C-258,479.5-257.9,479.5-257.9,479.5"/>
	<path class="st0" d="M-255.2,479.4L-255.2,479.4L-255.2,479.4C-255.2,479.5-255.1,479.3-255.2,479.4"/>
	<path class="st0" d="M-258,479.2c0.1,0.1,0.2,0.3,0.3,0.1h-0.1L-258,479.2"/>
	<polyline class="st0" points="-259.6,479.2 -259.5,479.3 -259.5,479.1 -259.6,479.2 	"/>
	<polyline class="st0" points="-259.8,479.2 -259.7,479.1 -259.8,479.2 	"/>
	<path class="st0" d="M-258.5,479.2l0.2,0.1v0.1h-0.1c-0.3-0.6,0,0,0,0.1h-0.1l0.1,0.1v-0.1l0.1-0.1v0.2l0.1-0.1l0.2,0.1h-0.1
		c0.1-0.2-0.2-0.2-0.2-0.2c0-0.2,0.1-0.4-0.1-0.4v-0.1l-0.2-0.1C-258.5,479-258.5,479.1-258.5,479.2"/>
	<polyline class="st0" points="-258.7,478.9 -258.6,478.8 -258.7,478.9 	"/>
	<path class="st0" d="M-258.6,478.8C-258.6,478.9-258.5,478.9-258.6,478.8"/>
	<polyline class="st0" points="-258.7,478.8 -258.7,478.9 -258.7,478.8 	"/>
	<polyline class="st0" points="-261,478.7 -261,478.7 -261,478.7 	"/>
	<path class="st0" d="M-258.7,478.7C-258.6,478.6-258.6,478.6-258.7,478.7v-0.1C-258.7,478.6-258.8,478.7-258.7,478.7"/>
	<path class="st0" d="M-259.9,478.7v0.3l0.1-0.1v0.1l0.2-0.1l0.2-0.1c0-0.2-0.1-0.2-0.1-0.2h-0.1c-0.1,0,0,0,0-0.1
		C-259.8,478.4-259.9,478.6-259.9,478.7"/>
	<polyline class="st0" points="-255.6,478.4 -255.6,478.4 -255.6,478.4 -255.6,478.4 	"/>
	<path class="st0" d="M-262.4,478.3C-262.5,478.4-262.4,478.5-262.4,478.3"/>
	<path class="st0" d="M-262.4,478.2v0.2C-262.3,478.4-262.2,478.2-262.4,478.2"/>
	<polyline class="st0" points="-260.8,478.3 -260.8,478.2 -260.8,478.3 	"/>
	<path class="st0" d="M-259.4,478.3v0.1V478.3v0.2c0,0.1,0.1,0.1,0.2,0.1h0.1v-0.3l-0.1-0.1C-259.3,478.2-259.4,478.3-259.4,478.3"
		/>
	<path class="st0" d="M-259.5,478.1C-259.5,478.1-259.5,478.3-259.5,478.1"/>
	<path class="st0" d="M-262.7,478.3v0.1c0.1-0.1,0.1,0,0.1,0.1L-262.7,478.3c-0.1-0.1,0-0.1,0-0.2h-0.1
		C-262.7,478.1-262.7,478.2-262.7,478.3"/>
	<polyline class="st0" points="-259.3,478.1 -259.3,478 -259.3,478.1 	"/>
	<path class="st0" d="M-262.2,478l0.1,0.1h0.1C-262.1,477.9-262.1,478-262.2,478"/>
	<path class="st0" d="M-264.9,478C-264.9,478-264.9,478.2-264.9,478l0.1-0.1L-264.9,478"/>
	<polyline class="st0" points="-264.8,478.1 -264.7,477.9 -264.8,478.1 	"/>
	<path class="st0" d="M-260.3,477.9L-260.3,477.9L-260.3,477.9l0.1,0.2l0.1-0.1c0,0,0.1,0.3,0.2,0.1c-0.1-0.1-0.1-0.2-0.2-0.1v-0.1
		H-260.3"/>
	<path class="st0" d="M-262.5,477.7v0.3c0.1,0.1,0,0.2,0.1,0v0.1C-262.2,478.1-262.5,477.8-262.5,477.7l0.1,0.2l0.1-0.1l-0.1,0.1
		c0-0.1,0.1-0.1,0.1-0.1C-262.5,477.7-262.5,477.9-262.5,477.7"/>
	<polyline class="st0" points="-257.9,477.7 -257.9,477.7 -257.9,477.5 -257.9,477.7 	"/>
	<polyline class="st0" points="-256.7,477.6 -256.7,477.7 -256.7,477.6 	"/>
	<polyline class="st0" points="-255.7,477.6 -255.7,477.4 -255.7,477.6 	"/>
	<path class="st0" d="M-262.4,477.5c0.1,0-0.1,0.2,0,0.2V477.5l0.1,0.2C-262.3,477.5-262.4,477.5-262.4,477.5"/>
	<path class="st0" d="M-265.1,477.2l0.1-0.1C-265.1,477.1-265.1,477.1-265.1,477.2"/>
	<path class="st0" d="M-256.8,477.2L-256.8,477.2L-256.8,477.2L-256.8,477.2L-256.8,477.2L-256.8,477.2l0.1,0.2h-0.2
		c0.1,0.1,0.2,0.2,0.3,0.2l0.1,0.1h0.2l0.1-0.1v-0.2h-0.5L-256.8,477.2c-0.1,0.1,0.1,0,0.1-0.1C-256.6,477-256.8,477-256.8,477.2"/>
	<polyline class="st0" points="-261.5,477.2 -261.5,477.2 -261.5,477.2 	"/>
	<path class="st0" d="M-261.7,477l-0.1,0.1h-0.2l0.1-0.1l-0.1,0.2h-0.1c0.1,0,0-0.1,0.1-0.1c0-0.1-0.1-0.1-0.1-0.1v0.3l-0.2,0.1v0.1
		h-0.1c0,0.2,0.1,0.2,0.2,0.2h0.1v-0.1h0.2v0.2c0.1,0.2,0,0.2-0.1,0.2v0.1l0.1,0.1l-0.2,0.2h0.2c0.1,0.1,0.1,0.1,0.3,0
		c0.1,0,0.4-0.3,0.4-0.1l0.1-0.1l0.2,0.1V478c0.2,0.3,0.2-0.4,0.2-0.4c0-0.1-0.2-0.1-0.2-0.1h-0.2c0.1-0.1,0-0.1,0-0.2
		c0,0-0.3,0.1-0.2,0h0.1l-0.1-0.1c-0.1-0.1-0.1-0.1-0.2-0.3h0.1v-0.1L-261.7,477"/>
	<polygon class="st0" points="-261,476.8 -261,477 -260.9,477 	"/>
	<path class="st0" d="M-257.1,477.5C-257.4,477.4-257.1,477.4-257.1,477.5L-257.1,477.5"/>
	<path class="st0" d="M-257.2,476.9h-0.3v0.2h-0.1V477l-0.1-0.2h-0.1c0.1,0.1,0,0.2,0,0.3h0.1c0,0.1,0.1,0,0.2,0h-0.1
		c0,0.1,0.1,0,0.1,0.1h-0.1l0.1,0.1h-0.1l-0.1-0.1v-0.1l-0.1,0.1l0.2,0.2v-0.1v0.1h0.2c0,0.2,0.1,0,0.2,0c0,0.1,0.1,0.2,0,0.3h0.3
		c0.1,0.2,0.3,0,0.3,0v0.1v-0.1c-0.1,0.1-0.2-0.1-0.3-0.2l-0.1-0.1v-0.2l-0.1,0.1v-0.1l0.1,0.1v-0.2v0.1h-0.1V477L-257.2,476.9
		l0.1,0.1c0-0.1,0.1-0.2,0-0.3L-257.2,476.9"/>
	<polyline class="st0" points="-262,476.9 -262,476.8 -262,476.9 	"/>
	<polyline class="st0" points="-262,476.8 -261.9,477 -262,476.8 -261.8,476.8 -261.8,476.9 -261.7,476.8 -262,476.8 	"/>
	<path class="st0" d="M-258,476.7c-0.1-0.1-0.1,0-0.1-0.1h-0.1l-0.2,0.2v0.1l0.1,0.1v-0.1v0.1l0.1-0.1l-0.1,0.1
		c0.1,0,0.1-0.1,0.1-0.2v-0.1C-257.9,476.9-257.9,476.8-258,476.7v-0.2C-258,476.6-257.9,476.7-258,476.7"/>
	<path class="st0" d="M-261.5,476.6l0.1,0.1h0.1v-0.1l0.1,0.1v0.1h-0.1v0.1c0.1-0.2,0.3-0.1,0.3,0.1v-0.2c0,0.1,0,0,0,0v-0.1h-0.2
		v-0.1c0,0.1,0.1,0,0.1,0H-261.5"/>
	<polyline class="st0" points="-262.1,476.6 -262.1,476.6 -262.1,476.6 	"/>
	<path class="st0" d="M-255.4,476.6c-0.2,0.1,0.2,0.2,0.3,0.2L-255.4,476.6h0.2H-255.4c0.1,0.1-0.1-0.2,0-0.2h-0.2
		C-255.6,476.6-255.5,476.6-255.4,476.6"/>
	<path class="st0" d="M-262.7,476.4C-262.7,476.6-262.6,476.4-262.7,476.4"/>
	<path class="st0" d="M-262.5,476.5L-262.5,476.5L-262.5,476.5c-0.2,0-0.3,0.1-0.3,0h-0.1v0.2l-0.1,0.1c-0.1,0.3,0.2,0.1,0.4,0.2
		v-0.1l0.1-0.2V476.5L-262.5,476.5L-262.5,476.5L-262.5,476.5c0.1,0,0.2,0.1,0.2-0.1h-0.1c0,0-0.1,0-0.1-0.1V476.5"/>
	<polyline class="st0" points="-258.2,476.4 -258.3,476.4 -258.2,476.4 	"/>
	<path class="st0" d="M-257.7,476.3c0,0.3,0.3,0.1,0.3,0.1h-0.1L-257.7,476.3"/>
	<path class="st0" d="M-256.9,476.3l-0.2,0.2v0.2h-0.1c0.1,0,0,0,0,0l0.2,0.4c0-0.1,0-0.3,0.1-0.2v0.1c0.1,0,0.2-0.1,0.2-0.2v0.1
		l0.1-0.1v-0.5h-0.1c0,0.1,0.1,0.2,0.1,0.3c0,0-0.1-0.3-0.2-0.2L-256.9,476.3v0.1V476.3v0.1C-256.9,476.3-256.8,476.3-256.9,476.3
		C-256.8,476.2-256.9,476.3-256.9,476.3"/>
	<path class="st0" d="M-257.1,476.2c0,0,0.1,0.1,0.1-0.1L-257.1,476.2"/>
	<path class="st0" d="M-260.3,476c-0.1,0.2-0.1,0.2,0,0.2c0,0-0.1,0.1,0,0.2C-260.3,476.2-260.2,476.1-260.3,476"/>
	<path class="st0" d="M-261.1,476l-0.1,0.1L-261.1,476c-0.2,0-0.1,0.2-0.1,0.1l-0.1,0.1h0.4v0.1v-0.2
		C-260.8,476.1-261,476.1-261.1,476C-260.9,476-261.1,476-261.1,476"/>
	<path class="st0" d="M-254.8,476C-254.8,476.2-254.7,476-254.8,476L-254.8,476L-254.8,476"/>
	<polyline class="st0" points="-261.2,475.7 -261.2,475.7 -261.2,475.7 	"/>
	<path class="st0" d="M-260.8,475.6l0.1,0.1h-0.1c-0.1,0.1,0.1,0.1,0.1,0v0.1c0.1,0,0.1,0,0.1-0.1h-0.1L-260.8,475.6L-260.8,475.6
		L-260.8,475.6L-260.8,475.6L-260.8,475.6l0.1-0.1h-0.1V475.6"/>
	<path class="st0" d="M-259.2,475.6c0.1-0.1-0.2-0.1-0.2,0l-0.1-0.1v0.1l-0.1-0.1v0.1c0,0,0.2,0.3,0.3,0.2c0-0.2,0.3-0.1,0.3-0.1
		l0.1,0.1l0.1,0.1v0.1l-0.2-0.1l-0.1,0.1l0.2,0.2c0,0.1,0.1,0.1,0,0.1v0.1h-0.1c0,0.1,0.1,0.1,0.1-0.1c0.1,0,0.1-0.3,0.2-0.4v0.1
		c0,0.1,0,0.1-0.1,0.2l0.1-0.1h0.1V476h-0.1c0.1,0-0.3-0.4-0.2-0.5l-0.1,0.1v-0.2L-259.2,475.6"/>
	<path class="st0" d="M-261,475.5L-261,475.5l0.1,0.2h0.1h-0.1C-260.8,475.6-261,475.4-261,475.5"/>
	<path class="st0" d="M-259.8,475.7h-0.2v-0.2c0,0,0-0.1-0.1,0l-0.2,0.2v0.1v-0.1c0,0.1,0.1,0.2,0.2,0c0,0.1,0,0.2,0.1,0.1
		c-0.1,0.1,0.1,0.2,0.1,0.2v0.1V476l0.2,0.1C-259.7,476-259.8,475.7-259.8,475.7h0.1H-259.8c0.1,0,0-0.1,0.1-0.2l-0.1-0.1V475.7"/>
	<path class="st0" d="M-261.6,475.3L-261.6,475.3c-0.1,0.1,0,0.1,0.1,0.2v0.1c0.1-0.1,0.1-0.1,0.1-0.2
		C-261.4,475.3-261.5,475.3-261.6,475.3L-261.6,475.3"/>
	<polyline class="st0" points="-260.9,475.1 -260.9,475.2 -260.9,475.1 	"/>
	<polyline class="st0" points="-261.7,474.9 -261.7,474.9 -261.7,474.9 	"/>
	<path class="st0" d="M-259.6,474.9l-0.1,0.1h0.1C-259.7,474.9-259.5,474.9-259.6,474.9L-259.6,474.9"/>
	<path class="st0" d="M-259.8,474.8L-259.8,474.8l-0.2,0.1v0.2c0.1,0,0.2,0.2,0.2,0V474.8l0.1,0.2L-259.8,474.8L-259.8,474.8"/>
	<path class="st0" d="M-258.5,474.1h0.2C-258.3,474-258.4,474.1-258.5,474.1L-258.5,474.1L-258.5,474.1L-258.5,474.1"/>
	<path class="st0" d="M-260.8,474.1h0.1c0.1,0,0.1-0.2,0.1-0.2h-0.1C-260.8,473.9-260.8,474-260.8,474.1"/>
	<path class="st0" d="M-258.7,474v0.2V474L-258.7,474L-258.7,474c0,0,0.1-0.1,0-0.1V474"/>
	<path class="st0" d="M-260.9,473.8C-260.8,473.8-260.8,473.9-260.9,473.8"/>
	<path class="st0" d="M-259.6,473.7C-259.7,473.8-259.6,473.7-259.6,473.7"/>
	<path class="st0" d="M-260.8,473.8L-260.8,473.8v-0.1C-260.8,473.6-260.9,473.8-260.8,473.8"/>
	<path class="st0" d="M-260,473.6v0.1V473.6v0.1c0-0.1-0.1,0.1-0.2,0.2h0.1h-0.1h0.1v-0.1v0.1h0.1h-0.1h0.1v-0.1l0.2-0.1v-0.1
		L-260,473.6"/>
	<path class="st0" d="M-259.5,473.5C-259.5,473.4-259.6,473.5-259.5,473.5L-259.5,473.5c0.1,0.1,0,0.3,0.1,0.2
		c0,0.1,0.1,0.2,0.1,0.1c0.1,0,0.1,0,0.2-0.1v0.1h0.1l0.1-0.1h-0.2c0,0,0-0.1-0.1-0.2l0.1,0.1h-0.2v-0.1v0.1L-259.5,473.5
		C-259.5,473.6-259.5,473.6-259.5,473.5"/>
	<path class="st0" d="M-257.9,473.4C-257.9,473.5-257.9,473.4-257.9,473.4"/>
	<polyline class="st0" points="-259.6,473.4 -259.6,473.3 -259.6,473.4 	"/>
	<polyline class="st0" points="-261.7,473.2 -261.8,473.4 -261.7,473.2 -261.7,473.4 -261.7,473.2 	"/>
	<path class="st0" d="M-257.8,473.2C-257.5,473.3-257.7,473.2-257.8,473.2v-0.1V473.2"/>
	<path class="st0" d="M-260.4,473.1l-0.1,0.1L-260.4,473.1L-260.4,473.1l-0.2,0.2L-260.4,473.1L-260.4,473.1v0.1l0.2-0.1
		C-260.2,473.1-260.4,473.2-260.4,473.1"/>
	<path class="st0" d="M-260.3,473L-260.3,473l0.1,0.2l0.1-0.1c-0.1,0,0,0-0.1,0.1C-260.2,473-260.1,473-260.3,473"/>
	<polyline class="st0" points="-258.2,473 -258.2,473 -258.2,473 	"/>
	<polyline class="st0" points="-260.1,472.9 -260.1,473 -260.1,472.9 	"/>
	<path class="st0" d="M-259.8,472.9c0,0.1,0.1,0,0.2,0H-259.8"/>
	<path class="st0" d="M-260.7,471.4c-0.3,0.2-0.1,0.3-0.1,0.2v-0.1L-260.7,471.4v0.1V471.4"/>
	<path class="st0" d="M-258,471.4v0.2c0-0.1,0.1-0.2,0.1-0.3L-258,471.4"/>
	<path class="st0" d="M-261.4,471.2L-261.4,471.2c-0.1,0.2,0,0.2,0,0.2V471.2"/>
	<polyline class="st0" points="-261,471.2 -261,471.1 -261,471.2 	"/>
	<polyline class="st0" points="-261.7,471.1 -261.7,471.1 -261.7,471.1 	"/>
	<path class="st0" d="M-260.8,470.9v0.2c0,0.1,0.1,0,0.1,0L-260.8,470.9h0.1c-0.1,0.1,0.1,0,0.1,0
		C-260.7,470.9-260.7,470.8-260.8,470.9"/>
	<polyline class="st0" points="-262.2,471.1 -262.2,471.1 -262.2,471.1 	"/>
	<path class="st0" d="M-261.5,470.9c0.1,0.1,0,0.1,0,0.1v0.1h0.1l-0.1,0.1c0.3-0.1,0-0.1,0.1-0.2l-0.1,0.1V470.9"/>
	<path class="st0" d="M-262.8,470.8C-262.7,470.8-262.8,470.8-262.8,470.8"/>
	<path class="st0" d="M-259.6,470.7c-0.1,0.1,0,0.1-0.1,0.1c0,0,0.1,0.2,0.1,0.1l-0.1-0.1L-259.6,470.7"/>
	<path class="st0" d="M-260.8,470.6v0.1V470.6v0.2C-260.9,470.7-260.8,470.6-260.8,470.6l-0.1,0.2L-260.8,470.6L-260.8,470.6"/>
	<path class="st0" d="M-262.6,470.6L-262.6,470.6l-0.1,0.2c0,0-0.1,0.1,0,0.1v0.1v-0.1l0.1,0.2c0.1-0.2,0,0.2,0.1,0.2l0.1-0.1v0.1
		v-0.1h-0.1l0.1-0.1V471v0.1l-0.1-0.1c-0.1-0.1,0.1-0.1,0.1-0.2L-262.6,470.6"/>
	<path class="st0" d="M-261.7,470.5C-261.6,470.5-261.7,470.6-261.7,470.5"/>
	<path class="st0" d="M-262.8,470.2C-263,470.2-262.7,470.3-262.8,470.2"/>
	<path class="st0" d="M-259.8,470.2C-259.8,470.3-259.7,470.4-259.8,470.2C-259.8,470.2-259.8,470.3-259.8,470.2"/>
	<path class="st0" d="M-261.7,469.9l0.1,0.2l0.1-0.1c0.1,0.1,0.2,0,0.2,0.2h-0.1v0.1h-0.1c0.1,0.1,0.1,0.2,0,0.2v0.1l0.3-0.1
		l-0.2-0.1c0.1,0,0.1-0.2,0-0.3l-0.1-0.1v-0.1v0.1v-0.1L-261.7,469.9"/>
	<path class="st0" d="M-261.5,469.8C-261.5,469.7-261.7,469.8-261.5,469.8"/>
	<polyline class="st0" points="-261.7,469.6 -261.7,469.7 -261.7,469.6 	"/>
	<path class="st0" d="M-261.3,469.4C-261.3,469.6-261.2,469.4-261.3,469.4"/>
	<polyline class="st0" points="-256.3,487.8 -256.3,487.8 -256.3,487.8 	"/>
	<path class="st0" d="M-254.2,484.8C-254.2,484.7-254.2,484.7-254.2,484.8"/>
	<path class="st0" d="M-260.8,467.5V464c0-0.4-0.3-0.7-0.7-0.7h-8.2c-0.4,0-0.7,0.3-0.7,0.7v18.4c0,0.5-0.4,0.6-0.6,0.2l-7.2-17.4
		l-0.3-0.7c-0.5-1.1-0.5-1.2-1.9-1.2h-8.9c-0.4,0-0.7,0.3-0.7,0.7v36.4c0,0.4,0.3,0.7,0.7,0.7h7.8c0.4,0,0.7-0.3,0.7-0.7V482
		c0-0.5,0.4-0.6,0.6-0.2l7.2,17.4l0.3,0.7c0.2,0.7,0.9,1.2,1.6,1.2h5.5c2.3,0,4.2-1.9,4.2-4.2v-9.5c-0.1,0-0.2-0.1-0.3-0.1l-0.1-0.1
		l0.1,0.2h-0.2v-0.1v0.1l0.1-0.1h-0.2c0,0.2,0,0.3,0.1,0.2h0.1l0.1,0.1h-0.1l0.1,0.1c0,0-0.2,0-0.2-0.1v0.2v-0.1l-0.1,0.1l-0.1,0.1
		c-0.1,0.2,0,0.2,0,0.2h-0.3c-0.2,0-0.3,0.1-0.5,0.1l0.1-0.1l-0.1,0.1l-0.2-0.1h0.1c-0.1-0.1,0-0.3-0.2-0.3v0.2l-0.1-0.2l-0.1,0.1
		l-0.2,0.5v-0.1l0.1,0.1h-0.1l0.1,0.1l-0.1,0.4v-0.1c-0.2,0-0.2,0-0.2,0.2h-0.1v-0.1l-0.1,0.2h-0.1c0-0.1,0.1-0.3,0.1-0.4h-0.1
		l-0.2,0.2v-0.1l-0.1,0.3l-0.2,0.1v-0.1h-0.1c0,0.3,0.2,0.2,0,0.2l-0.1,0.1c-0.1,0.1-0.1,0.3-0.2,0.1c-0.1-0.2,0-0.3,0-0.3
		c0.1,0,0.1-0.3,0.2-0.4l-0.1,0.1v0.1v-0.1h-0.1c0,0-0.1-0.2-0.2-0.2c0-0.2-0.2-0.2-0.2-0.3l0.1-0.1l-0.1-0.2c0,0,0.1-0.1,0.2,0.1
		v-0.1c0.1-0.1,0.1-0.5,0.3-0.4c-0.2-0.2,0-0.4,0.1-0.5c0-0.1,0-0.5,0.2-0.3v-0.1h0.1v-0.1h0.1l-0.1-0.1l0.1-0.1h0.1h-0.3v-0.1v0.1
		v-0.2l0.3,0.1c0.1-0.1,0-0.2,0-0.2c0-0.1,0-0.2,0.1-0.3v0.1v-0.2v0.1l-0.1,0.1l-0.2,0.2v-0.1l-0.1,0.2h-0.1l-0.3,0.3v-0.1
		c-0.1,0.1-0.2,0.5-0.2,0.3l0.1,0.1c-0.1,0-0.2,0.1-0.1,0.2c-0.1-0.1,0,0.3-0.2,0.3c-0.1,0-0.1,0.2-0.2,0.3l-0.1-0.3h-0.1v0.1h-0.1
		c0,0.2-0.1,0.1-0.1,0.1h0.2v0.1l0.1-0.1v0.1h-0.1v0.1v-0.1v0.1h-0.2v-0.2h-0.1c0.1,0.1-0.1,0-0.1-0.1l-0.1-0.1l0.1-0.1h0.1v-0.2
		l0.1-0.2h0.1l0.1-0.1l-0.2,0.5l0.1-0.1l-0.1-0.3l-0.2,0.2c-0.2,0.2-0.4,0.3-0.3,0h0.1c0-0.1-0.2-0.4-0.1-0.4
		c-0.4-0.3,0-0.3,0.1-0.3c0,0,0.1-0.3,0.2-0.1c0.1-0.2,0.3-0.1,0.4,0h-0.1l0.1,0.2v-0.1l0.2-0.1h-0.1c0-0.1,0.1-0.1,0.1,0h0.1h-0.1
		c0,0,0.4-0.2,0.4-0.3l-0.1,0.1c0-0.1,0.1-0.1,0.1-0.1v-0.1h0.1v0.1c0.2-0.2,0.4,0,0.4-0.3h0.1v0.2l0.1-0.2c0.1,0.1,0.2-0.1,0.2-0.2
		c-0.2,0.1-0.5-0.1-0.6-0.1v-0.1h-0.2c0.1,0.1,0,0.1,0,0.2l0.1,0.1h-0.1l-0.2,0.1v-0.1h-0.1c0-0.1,0,0,0,0v-0.1c0,0-0.1,0,0,0.1
		h-0.1l0.2,0.1c0.1,0.1,0,0.3-0.1,0.1v-0.1l-0.1,0.1l0.1,0.2h-0.1l0.1-0.1l-0.1,0.1v0.2h-0.2c-0.1,0,0-0.3,0.1-0.3
		c0,0-0.1-0.3-0.1-0.1h0.1h-0.1v0.2v-0.1c0,0-0.2,0.1-0.1,0.1h-0.1v-0.2v0.1h-0.2c0,0.1-0.1,0-0.1,0.1v0.1l0.1,0.1
		c-0.1,0.1-0.1,0.2-0.2,0.3h-0.2l0.1-0.1h-0.4v-0.1v0.2v-0.1h0.1c0,0.1-0.2,0.2-0.2,0.2c0.1,0,0.1,0.1,0,0.2h-0.2v-0.3l0.1,0.1
		l-0.1-0.2h-0.1c0,0,0-0.2-0.1-0.1c0-0.1,0.1-0.1,0.1-0.1h0.1l-0.1-0.1h0.1c-0.1,0.1,0.1,0,0.1,0h-0.1c0.1-0.1,0-0.1,0-0.2
		c0,0.1,0.1,0.1,0.2,0.1v0.1V486c0.1,0,0.2,0,0.2-0.1h0.1l-0.1-0.1l0.1-0.1h0.1h-0.1v-0.2v0.1c0,0.1-0.1,0.1-0.1,0.1h-0.1l0.1-0.1
		l-0.1,0.1h0.1v0.1c-0.1-0.1-0.2,0-0.2,0.1h-0.1c0-0.1-0.2-0.2,0-0.2c0-0.1-0.3-0.3-0.2-0.4c0-0.1-0.1-0.4-0.2-0.6h0.1
		c0-0.1,0.4-0.6,0.4-0.8h0.1c0,0,0-0.4,0.2-0.2h-0.1h0.1v-0.3l-0.1,0.1c0-0.1-0.2-0.2-0.2-0.4c0.2,0,0.3,0,0.4-0.1
		c0-0.2-0.1-0.1-0.1-0.2h0.1v-0.1c0.2,0.1,0.1,0,0.3,0.2c0.1,0.1,0.1,0,0.1-0.1h0.1v-0.4c0.2-0.1,0.2-0.3,0.2-0.5
		c-0.1-0.2,0.1-0.2,0.1-0.3c0,0,0.2,0.1,0.1-0.1v-0.1c-0.2,0.2,0.1-0.1,0-0.2h0.1c0,0,0.1,0.2,0.2,0.1c-0.1-0.1,0-0.1,0-0.2h0.1
		c-0.1,0.1,0.3,0.3,0.4,0.3v0.1h-0.2l0.1,0.1c0-0.1,0-0.1,0.1-0.1v-0.1h-0.1v-0.2l0.1,0.1h0.1v-0.1h0.1v0.1c0,0,0.1,0,0.1-0.1h-0.1
		c0.1,0,0.2,0.1,0.1-0.1h0.1c-0.1-0.1,0.1-0.1,0.2-0.1c0-0.1-0.2-0.2-0.2-0.1l0.1-0.1c0-0.1-0.1,0.1-0.1,0.1v-0.1h-0.1v0.2v-0.1v0.1
		h-0.2l-0.1,0.2c0,0.1-0.1-0.2-0.1-0.4c-0.1-0.2-0.1-0.5,0-0.3c0-0.1,0-0.2-0.1-0.2s-0.1,0-0.1-0.2h0.3h-0.1l0.3-0.3h0.1
		c0-0.2,0.3-0.1,0.3,0c0.1-0.1,0.5-0.1,0.6-0.1c0-0.1,0.1-0.3,0.1-0.2h0.1v-0.3l0.3-0.2h-0.1h0.3l0.1-0.1h0.1v-0.1
		c0-0.1-0.2-0.1-0.3-0.1h0.1c0-0.2-0.3-0.3-0.2-0.2v-0.1v0.2c-0.1-0.1,0,0-0.1,0.1c-0.1,0-0.2-0.3-0.2-0.4c0.1,0,0.2-0.2,0.1-0.2
		V478c0,0,0.3-0.4,0.4-0.6l0.1-0.1l0.1-0.1c-0.1-0.1,0,0-0.1-0.2h-0.1l0.1-0.1h-0.1c-0.1,0-0.2-0.1-0.3,0.1l0.1,0.1h-0.2V477
		l-0.1,0.1v0.2c0-0.1-0.2,0-0.2,0.1s-0.3,0.1-0.3,0h0.2c-0.1,0,0.1-0.3,0-0.3V477l-0.2,0.1c0.2,0,0,0.2-0.1,0.3h-0.2v0.2h-0.2
		c0,0,0-0.2-0.1-0.1v0.1c0-0.2-0.4,0.2-0.2,0.2c0.1,0.1-0.2,0.1-0.2,0.1v0.1l0.1-0.1v0.1v-0.1v0.1h-0.1l-0.1,0.1v0.2h-0.2
		c0.1,0,0.1-0.2,0.1-0.2h-0.1c0,0.3-0.2,0.2-0.2,0.1l-0.1,0.1h0.1l-0.1-0.1v0.2c0-0.1,0-0.2,0.1-0.2l-0.3,0.1l0.1,0.1h-0.2l-0.2-0.2
		l-0.1,0.1c-0.1-0.1,0.1-0.5,0.1-0.7v0.1c0-0.2,0-0.4,0.1-0.4l0.1-0.2c0.2,0,0.2,0.1,0.3,0.2c-0.1-0.1,0,0,0,0h0.2
		c0,0,0-0.1-0.1-0.1h-0.2l-0.1-0.1l0.1-0.1v-0.5c-0.1,0,0,0.1,0,0.1c-0.2-0.3-0.1-0.3,0-0.5h0.3v-0.4l0.1-0.1c0.1,0,0.1,0.1,0.1,0.2
		l0.2-0.1c0.1-0.1,0.2-0.1,0.2,0.1l0.1-0.2v0.1c0,0,0.1-0.2,0-0.2v0.1c0-0.2-0.2-0.3-0.1-0.5l0.2-0.3c0.1-0.1,0.2-0.1,0.4-0.3h-0.1
		h0.3l0.1-0.1c0,0.1,0.1,0.2,0.1,0.2v-0.1c0.1,0.1,0.1,0,0.1,0c0-0.1,0.4-0.2,0.4-0.2v-0.4v0.1l0.1-0.1l0.2-0.1
		c0-0.1,0.2-0.1,0.2-0.3l0.1,0.1l-0.1-0.2h0.1v0.1h0.1c0,0,0-0.1,0,0v0.1l0.1,0.1v-0.1c0-0.1-0.1-0.2,0-0.3c0,0-0.5,0.2-0.6,0.2
		l-0.1-0.1c0,0-0.5,0.3-0.6,0.1h0.1l-0.3-0.1v0.1V473c0.1-0.1,0.3,0,0.3-0.2c0,0,0.3,0,0.3,0.2c0.3-0.5,0.3-0.4,0.3-0.6
		c0,0,0.2-0.1-0.1,0l-0.1,0.1v-0.3l0.1,0.1l0.1-0.2v0.1v-0.1v0.1v-0.3l0.1,0.2l0.1-0.4h0.3l-0.1,0.1h0.2l-0.1-0.1l-0.1-0.1
		c0.1,0,0,0,0-0.1s-0.1-0.1-0.1-0.1s-0.3-0.1-0.3-0.3c0.1,0.2,0.1-0.2,0.1-0.2c0,0.1-0.1,0.1-0.2,0h-0.1c0-0.1,0-0.2,0.1-0.3h-0.1
		c0-0.1,0-0.2-0.1-0.3c0.2,0,0-0.3-0.1-0.3c-0.1-0.3,0.2-0.2,0.3-0.4h-0.1c0-0.2,0.3-0.4,0.5-0.4l0.2,0.2h0.1
		c-0.2,0-0.2-0.4-0.1-0.5c0.2,0,0.5-0.3,0.7-0.3l0.1,0.1c0.1,0.1,0.2,0.2,0.2,0.1v0.1c0-0.1,0.4-0.1,0.3,0.2c0,0,0.1,0,0.1,0.1
		l0.1-0.1c0.1,0,0.5,0,0.5,0.1l0.1-0.2c0-0.1,0.1-0.2,0.1-0.2v0.1h0.1v-0.1v0.1h0.3c0.1,0,0.3,0,0.3-0.1c0,0.3,0.2,0.2,0.2,0.4v-0.1
		v0.1v-0.1l0.1,0.1c0,0-0.1,0.1,0,0.2c-0.1,0.1,0,0.2,0,0.3v-0.1l-0.1,0.2c-0.1-0.1-0.2,0-0.3,0c0,0.2,0.2,0.3-0.1,0.4h0.1h-0.1
		c0,0,0.6,0.5,0.2,0.5c0,0,0.3,0.2,0.3,0l0.3-0.3v0.1c0.1,0,0.1-0.3,0.1-0.3h0.1c0.1-0.1,0.2-0.1,0.2,0.1c0.1-0.1,0.1-0.1,0-0.2
		v-0.2l0.2-0.1v0.3c0,0-0.1,0.2,0,0.3c0,0,0.4-0.2,0.2-0.3h0.3c0.1,0.1,0.2,0.2,0.1,0.4c0,0-0.1,0.2-0.2,0.3h0.1c0,0-0.1,0,0,0.2
		l0.1-0.1v0.2c0,0.2,0.2,0,0.2,0.3c0-0.1,0.1,0.3,0.1,0.4l0.1-0.1c0.1,0.2,0,0.3-0.1,0.4c0.1,0.1,0.1,0.1,0.1,0.3v0.1l0.2,0.1
		c0.1,0,0,0.1,0.1,0.2c0,0.2-0.1,0.2-0.1,0.2l-0.3,0.6l-0.3-0.2v0.1h0.1v0.3c0,0.1,0.2,0,0.2-0.2l0.1,0.1c0-0.2,0.1-0.1,0.2-0.2
		c0.1,0.1,0.3,0,0.2,0c0.1-0.2,0.2-0.1,0.4-0.1v0.1l0.1-0.1h0.1c0,0.2,0.1,0.2,0.2,0c0.2,0,0,0.5,0.1,0.6c0,0.1,0,0,0,0v0.2h0.2
		l-0.1,0.2l-0.2,0.2l0.1,0.2c-0.1,0,0,0.1-0.1,0.2c-0.2-0.5-0.2-0.3-0.1-0.2v0.1c0-0.1,0.1-0.1-0.1-0.1l-0.1,0.1c-0.2,0,0,0.2,0,0.3
		c0.1-0.2,0.2-0.1,0.3-0.1h0.2c0,0.1,0.1,0,0.2,0h0.1v0.1c0.1-0.1,0.3,0,0.3-0.4c0.1,0,0.1,0,0.2-0.1v0.1h0.1v0.1h0.1v0.2
		c0,0,0,0.1-0.1,0.2c0,0.1-0.1,0.2-0.2,0.2c0.1,0.1,0,0,0,0.1l0.2,0.1c0.1,0.1,0.2,0.2,0.3-0.1l0.3-0.2l0.1,0.2l0.1-0.1v0.1v-0.1
		h0.1l-0.1,0.4l-0.1-0.1l-0.1,0.1h-0.1v0.1l-0.1,0.1h0.1c0,0.2,0.2,0.2,0.3,0.3c0,0.3-0.1,0.3-0.3,0.4h0.1c0-0.2-0.1,0-0.1,0
		c-0.1,0.1-0.2,0.3-0.4,0.3v0.2v-0.1v0.4c0,0-0.1-0.2-0.1,0.1l-0.1-0.3v0.2c0-0.1-0.1-0.1-0.2-0.1c0.1,0.1,0,0.1,0.1,0.3h-0.2v-0.2
		v0.1v-0.2l-0.2,0.2l-0.1-0.2v0.2l0.1,0.1v-0.1l0.1,0.1l0.1-0.1v0.1h0.1c0,0,0.1,0.1,0,0h0.1v0.1l0.2-0.1v0.2c0.1-0.1,0.1,0,0.3,0.1
		l0.1-0.1c0,0.2,0,0.3-0.2,0.3c0.1,0.1-0.2,0.2-0.2,0.2c-0.1,0-0.1-0.1-0.1,0.1h-0.2v0.1h-0.1v0.1v-0.1c0,0,0.1,0.1,0.1,0
		c0.2,0.1-0.3,0.3,0.3,0.1l0.1,0.1l0.1,0.1l-0.1,0.4h0.1h-0.1v0.3c0.2-0.1,0.1,0.2,0,0.2v0.2c0.5,0.1-0.3,0.7-0.2,0.5v-0.3h-0.2
		c-0.3,0,0-0.1-0.1-0.2h-0.1v0.1h-0.1c0.1,0,0.1,0,0.1,0.1c-0.1,0-0.2,0-0.1,0.1h-0.1h0.1h-0.1c-0.1,0,0.1,0.2,0.2,0.1l0.1,0.2v0.1
		c0.1-0.2,0.1,0,0.2,0.1v-0.1c0,0-0.1,0.3-0.2,0.2l0.1,0.1c-0.1,0-0.2,0.1-0.1,0.1c0.1-0.1,0.1,0.1,0.1,0.2h-0.6v-0.2h-0.1v-0.1
		l-0.1,0.1h0.1l-0.3,0.2v0.1h-0.1v0.1c0,0,0-0.2-0.1,0h-0.1v0.1h0.1v0.2h-0.1l-0.2,0.3h0.1h-0.2c0,0,0.1-0.1,0.1,0v0.1
		c0.1,0.1,0.1,0.2,0.2,0.1v0.1c0.1,0,0-0.2,0.1-0.1c0,0,0.1,0.3,0.1,0.1v0.1c0,0,0.4,0,0.3,0.2v0.1l0.1-0.1c0.1,0,0.4,0,0.5-0.1
		c0,0.1,0.1,0.1,0.2,0v0.2l0.1-0.2c0,0.2,0.1-0.1,0.2-0.1h0.1v0.4l0.1-0.1v0.2l-0.1,0.1h0.1v0.2l0.2,0.2c0.1-0.1-0.1-0.1,0.1-0.1
		c0,0.1,0.1,0,0.1-0.1v0.1h0.3c0.1,0-0.1,0.1,0,0v-0.1h0.1v0.1c0,0.1,0.2,0,0.1,0.1v-0.1l0.3,0.5v-0.1v0.2c-0.2,0.3-0.1,0.3-0.3,0.3
		h-0.1h0.1h-0.1c-0.1,0-0.1,0.1-0.3,0c-0.1,0-0.2,0.1-0.2,0.2v0.2c0,0-0.2,0.2-0.2,0.1v0.1l-0.1,0.1c0,0,0.2,0.1,0.2,0l0.1-0.1
		c0.1-0.1,0.1-0.2,0.2,0.1c0,0,0.1-0.2,0.1,0c0-0.1,0.1-0.1,0.1,0h0.1V485v0.1V485l0.1,0.1l0.2-0.1v0.1c0.1-0.2,0.4-0.4,0.5-0.4
		c0,0.2,0.3,0.1,0.2,0h0.2v0.5c-0.2,0-0.4,0-0.5,0.2h-0.2v0.2l-0.1,0.1v0.2h0.1v0.2l0.2,0.2v0.1v-0.1h-0.5l-0.3,0.3h-0.1l-0.1,0.1
		v-0.1h-0.2c-0.1,0.1-0.3,0.2-0.4,0.3l-0.1-0.2l-0.1-0.1l-0.1,0.1l-0.1,0.2v0.1l-0.1,0.1c0.1-0.1,0.1,0,0.1,0l-0.1,0.1v-0.1
		l-0.1-0.1v0.1l-0.1,0.1l-0.1-0.1h0.1h-0.1c0-0.1,0,0,0.1-0.1l-0.1-0.1c0,0.3-0.1,0.2,0.1,0.4h-0.2h0.1v0.1c-0.1,0,0,0.1,0,0.2v-0.1
		l-0.1,0.2c0.2,0.1,0.2,0.1,0.1,0.1l-0.2-0.1l-0.4-0.3c0.1-0.2,0-0.1,0-0.2s-0.1-0.1,0.1-0.2v-0.1l-0.1,0.1v-0.1
		c-0.1,0-0.3-0.1-0.3-0.2h0.1v-0.1h0.1v-0.1l0.1,0.1l0.1,0.1v0.1c0.1-0.1,0-0.2,0-0.3h-0.1v-0.1v0.1l-0.1,0.1l0.1,0.1h-0.1v-0.1
		c0,0-0.1-0.1-0.1,0v-0.2l0.2-0.1h-0.1l0.1-0.1V486c0.1-0.2-0.2-0.2-0.1-0.2h-0.1v-0.2c0.1,0,0.1-0.1,0-0.1v0.1
		c-0.1-0.2,0-0.1,0-0.4h-0.1l0.1,0.1c-0.1,0-0.5-0.2-0.4-0.4v0.1c0.1-0.1,0-0.1,0-0.1v-0.1l-0.2,0.2l0.1,0.3l-0.1,0.2h-0.1
		c0,0-0.5,0.3-0.4,0.1h-0.3c0-0.1-0.3-0.1-0.3,0v0.1h0.1l0.1,0.1l-0.1,0.1c0,0,0.1,0.1,0.1,0.2c0.2,0,0.3,0.1,0.6,0.2v-0.1l0.1,0.1
		v0.1h0.3c-0.1,0.1,0.2,0.1,0.2,0.1l-0.1,0.2c0.1-0.1,0.3,0.2,0.1,0.2c0-0.1-0.1-0.2-0.2-0.2v-0.2l-0.1,0.1c0-0.1,0,0-0.1,0.1v-0.1
		l-0.2-0.1h-0.2h0.1h-0.1c0-0.1-0.1-0.1-0.2-0.1h0.1v0.1c0-0.1,0-0.2-0.2-0.2h-0.1v0.1h-0.1v0.1l-0.2,0.2c-0.1-0.2-0.3-0.2-0.4-0.1
		v-0.1l-0.2-0.1h-0.1v-0.1v0.1v-0.1l-0.3-0.1h-0.2h0.1l-0.2-0.1v0.2l-0.1,0.1v-0.1h-0.2v0.1h-0.1v0.2h0.1v0.1h-0.1
		c0,0.1,0,0.1,0.1,0.1l0.1,0.1h-0.1h0.1c0.1,0.1-0.1,0.2,0.1,0.3l-0.2,0.2l-0.1-0.1h-0.1v-0.1l-0.1,0.1l-0.1,0.1v9.8
		c0,2.3,1.9,4.2,4.2,4.2h8.5c8.8,0,11.9-4.1,13-8c0.4-1.6,0.6-3.2,0.6-4.3v0.2v-2.4c0-0.4-0.3-0.7-0.7-0.7h-7.8
		c-0.4,0-0.7,0.3-0.7,0.7v0.3c0,3.6-0.5,5.2-4.3,5.2c-4,0-4.3-2.5-4.3-6.5v-7.6c0-4,0.3-6.5,4.2-6.5h0.1c3.9,0,4.3,1.6,4.3,5.4v0.4
		c0.1,0.3,0.4,0.6,0.7,0.6h7.8c0.3,0,0.6-0.2,0.7-0.5v-2.1c0-1-0.1-3.1-0.5-4.7c-1-3.8-3.9-7.9-12.3-8.1h-2.4
		C-256,462.4-259.1,464.7-260.8,467.5"/>
	<g>
		<g>
			<defs>
				<path id="SVGID_1_" d="M-264.7,488.7l0.1-0.1L-264.7,488.7 M-264.9,488.4v-0.1V488.4 M-264,488.3v0.4h0.1
					C-264,488.5-263.9,488.4-264,488.3 M-266.1,487.8c0.1,0.1-0.1,0.2,0,0.2V487.8 M-264.7,487.6l0.1,0.1L-264.7,487.6L-264.7,487.6
					 M-263.2,487.6v0.1h0.1l0.1-0.1H-263.2 M-264.1,487.4l0.1,0.1L-264.1,487.4 M-264.3,487.4c-0.1,0.1,0,0.1,0,0.1V487.4
					 M-263.4,487.4v-0.1V487.4 M-264,487.2l0.1,0.1C-263.8,487.3-263.8,487.2-264,487.2C-263.8,487.3-263.9,487.2-264,487.2
					C-263.9,487.3-263.9,487.2-264,487.2 M-264.5,487.2C-264.4,487.2-264.4,487.2-264.5,487.2 M-263.6,487.1l-0.1,0.1h0.1V487.1
					 M-261.8,487v0.1V487c0,0.1-0.1,0.2-0.1,0.2h0.1c0,0,0-0.1,0,0V487 M-264.4,487.1l0.1-0.1L-264.4,487.1 M-264.3,486.8
					c0.1,0,0,0.1,0,0.1V486.8L-264.3,486.8 M-265.5,486.9L-265.5,486.9l-0.1-0.1c0,0.1-0.2,0.4-0.3,0.3
					C-265.9,487.4-265.5,486.9-265.5,486.9l0.1-0.1L-265.5,486.9 M-263.1,486.7L-263.1,486.7C-263.2,487-263.1,486.9-263.1,486.7
					L-263.1,486.7 M-262.6,486.7L-262.6,486.7l0.1-0.1L-262.6,486.7l0.1-0.1L-262.6,486.7 M-255.8,486.7l-0.1,0.1l0.1,0.1V486.7
					L-255.8,486.7c0,0.2,0,0.3,0.1,0.2h-0.1V486.7l0.1,0.2l0.1-0.1v0.1c0-0.1,0.1-0.3-0.1-0.3c0.1,0,0,0.1,0,0c0,0.1-0.1,0,0,0
					L-255.8,486.7 M-266.4,486.5C-266.5,486.4-266.4,486.6-266.4,486.5 M-262.2,486.4C-262.1,486.5-262.2,486.4-262.2,486.4v-0.1
					V486.4 M-261.9,486.2L-261.9,486.2L-261.9,486.2L-261.9,486.2 M-258.5,486.2L-258.5,486.2c0.2,0.1,0.2,0.1,0.2,0h0.1v-0.1
					L-258.5,486.2 M-254,486.2L-254,486.2L-254,486.2L-254,486.2 M-260.2,486.4l0.2-0.1h-0.2v-0.1V486.4 M-258.5,486.3v-0.2
					C-258.5,486.1-258.6,486.3-258.5,486.3 M-262.1,486.3v0.2C-262.1,486.4-262,486.4-262.1,486.3v0.1v-0.3V486.3v-0.2V486.3v-0.2
					V486.3 M-265.2,486.1v0.2V486.1 M-258.4,486v0.1V486l0.1,0.1L-258.4,486 M-256.1,486c0,0.1,0.1,0.3,0.1,0.3h0.2L-256.1,486
					L-256.1,486L-256.1,486 M-255.9,485.9C-256.1,486-255.9,485.9-255.9,485.9 M-265,485.9L-265,485.9c-0.1,0.1-0.2,0.3-0.2,0.3
					l0.1-0.1C-265.1,486-265,486-265,485.9h0.3H-265 M-255.8,485.9l0.1,0.2v0.1L-255.8,485.9L-255.8,485.9
					C-255.7,485.8-255.7,485.9-255.8,485.9l0.1-0.1L-255.8,485.9 M-256.2,485.8v0.3l0.1,0.1L-256.2,485.8 M-256,485.7l0.1,0.1
					L-256,485.7C-255.9,485.7-255.9,485.8-256,485.7 M-259.7,485.7C-259.8,485.8-259.7,485.8-259.7,485.7L-259.7,485.7L-259.7,485.7
					L-259.7,485.7 M-258.5,486l0.1-0.1l-0.2-0.1C-258.6,485.9-258.6,486-258.5,486 M-256.3,485.8l-0.1-0.2L-256.3,485.8
					 M-257.5,485.7L-257.5,485.7L-257.5,485.7 M-261.7,485.6l0.2,0.1v-0.2l-0.2-0.1V485.6 M-260.2,485.4v0.2V485.4 M-265.8,485.4
					v0.2V485.4v0.2V485.4 M-261.4,485.4L-261.4,485.4C-261.3,485.6-261.4,485.5-261.4,485.4 M-266.4,485.4
					C-266.4,485.3-266.3,485.4-266.4,485.4 M-265.7,485.3C-265.7,485.3-265.9,485.4-265.7,485.3 M-267,485.3c0,0.1-0.2,0.1-0.1,0.1
					l0.1,0.1V485.3l0.1,0.1h-0.1h0.1L-267,485.3 M-256.5,485.2l0.1,0.1v0.1c0.1,0-0.1,0,0,0.1h0.1c0,0.2,0,0.1,0.1,0.1l0.1,0.1v-0.2
					v0.1l-0.3-0.2L-256.5,485.2L-256.5,485.2 M-265.5,485.3v-0.1C-265.7,485.2-265.6,485.3-265.5,485.3 M-260.1,485.3
					C-260.2,485.3-260.1,485.3-260.1,485.3C-260.2,485.3-260.5,485.4-260.1,485.3l0.1-0.1V485L-260.1,485.3 M-264.4,485.2h0.1
					H-264.4 M-257,484.9v0.1V484.9L-257,484.9 M-264.8,485l-0.2,0.2h0.1l0.1,0.2h0.1l0.1-0.1C-264.7,485.4-264.7,485.1-264.8,485
					l0.1,0.1C-264.6,485-264.7,484.9-264.8,485 M-264.2,485v0.1V485l0.2-0.2h-0.3L-264.2,485 M-258,485l0.1,0.1v0.3v-0.1h0.1
					c0.1-0.1,0.2,0,0.2,0l0.1-0.1c-0.1,0,0,0,0,0L-258,485c0-0.2,0-0.3-0.1-0.3C-258.1,484.8-258.1,484.9-258,485 M-263,484.6
					c0,0.1,0,0.2-0.1,0.2c0,0.1,0.1,0.3,0.1,0.3h-0.1c0,0.1,0.1,0.1,0,0.2c-0.1,0.1,0.1,0.1,0.2,0.2c0,0.1,0.4,0.3,0.5,0.1v-0.2
					c0,0.1,0.1-0.1,0.1-0.1c0,0.1,0.1-0.1,0.1-0.1v-0.1l-0.1,0.1c-0.1-0.1,0.1-0.2,0-0.2v-0.1c0,0.1,0.2-0.1,0.2-0.1l-0.1-0.1
					l0.1,0.1h-0.2l-0.3,0.4c0-0.2-0.1-0.3-0.2-0.4h0.1l-0.1-0.1L-263,484.6L-263,484.6 M-262.7,484.5v0.2h0.1v0.1
					c0-0.1,0.1-0.1,0.1-0.2L-262.7,484.5 M-257.8,484.4l0.1,0.1l0.1-0.1c-0.1,0.2,0.1,0.2,0.2,0.2v0.2v-0.1v0.1l0.1-0.1
					c0,0.1,0.1,0.1,0.1-0.1h-0.1l0.1-0.2h-0.1l-0.1-0.1c-0.1,0.1-0.1,0.1-0.1,0l-0.1,0.1c-0.1,0-0.2,0-0.2-0.1V484.4 M-258.7,484.3
					l0.1,0.1C-258.6,484.2-258.7,484.3-258.7,484.3 M-254.4,484.2C-254.4,484.2-254.5,484.3-254.4,484.2 M-257.9,484.3
					c0,0-0.2,0.1-0.1,0.1L-257.9,484.3v0.2C-257.9,484.8-257.6,484.5-257.9,484.3 M-259.2,484.2c0,0.2,0.1,0.1,0.1,0.2l0.3-0.2
					c-0.1,0-0.2-0.1-0.3-0.1L-259.2,484.2 M-254.3,484.3L-254.3,484.3C-254.3,484.2-254.4,484.3-254.3,484.3 M-266.8,483.9
					C-266.7,483.9-266.7,483.9-266.8,483.9 M-266.6,483.9L-266.6,483.9L-266.6,483.9 M-263.1,483.8l-0.1,0.1L-263.1,483.8
					L-263.1,483.8 M-260.3,483.7L-260.3,483.7L-260.3,483.7 M-266.7,483.6l0.2,0.1l-0.1,0.1l0.1,0.1l0.1-0.1v-0.1l-0.2-0.2
					L-266.7,483.6 M-262.7,483.4h0.1H-262.7l0.2,0.1l-0.1-0.1H-262.7 M-263.4,483.4L-263.4,483.4L-263.4,483.4L-263.4,483.4
					 M-263,483.5C-263.1,483.5-263.1,483.6-263,483.5v0.2l0.1,0.1h0.1l0.1-0.1c0,0-0.1,0.2,0,0v0.1h0.2c0-0.2-0.2-0.1-0.2-0.2
					C-262.6,483.5-262.8,483.5-263,483.5L-263,483.5l0.2-0.1C-262.8,483.3-263.2,483.4-263,483.5 M-259.6,483.4v0.1V483.4
					 M-259.7,483.4c0-0.1,0.1-0.2,0-0.1V483.4v-0.2h-0.1C-259.8,483.4-259.7,483.4-259.7,483.4 M-262.4,483.3L-262.4,483.3
					L-262.4,483.3C-262.4,483.2-262.5,483.2-262.4,483.3 M-259.2,483.2c0,0-0.1,0.2-0.1,0.3L-259.2,483.2L-259.2,483.2
					 M-261.5,483.2c0,0.1-0.2,0.1-0.2,0.2l0.1,0.1v0.1l-0.2,0.2l0.3,0.1l0.1-0.1l0.1,0.1h0.2l0.1,0.1c0-0.1,0-0.3-0.1-0.3v0.1v-0.4
					v0.1c0,0-0.1-0.1,0-0.1h-0.3C-261.3,483.4-261.4,483.2-261.5,483.2C-261.6,483.3-261.4,483.2-261.5,483.2 M-260,483.2
					C-260.1,483.3-260,483.2-260,483.2 M-261.4,483.2l0.1,0.1C-261.2,483.2-261.3,483.2-261.4,483.2 M-262,483.1v0.1V483.1v0.3h0.1
					c0-0.1,0-0.1,0,0l-0.1-0.1C-261.9,483.3-262,483.2-262,483.1 M-263.4,483.1c-0.2,0.1,0,0.2,0,0.2V483.1 M-260.3,483.1
					c0,0.1,0,0.3,0.1,0.1v0.1L-260.3,483.1 M-260.1,483c0,0,0,0.3,0.1,0.2c0.1,0.1,0.1,0.2,0.2,0.2l-0.1-0.1l0.1-0.1v-0.1
					c0,0-0.1,0.1,0,0h-0.1c0.1,0,0,0,0,0S-259.9,483-260.1,483 M-262.3,482.9h0.1H-262.3 M-259.7,482.8L-259.7,482.8L-259.7,482.8
					 M-263.1,482.8C-263.1,482.9-263.1,482.8-263.1,482.8 M-259.1,482.9c0,0.1,0.2,0.3,0.2,0.4v0.1v-0.2v0.1v-0.5
					C-259,483-259,482.9-259.1,482.9l0.1-0.2L-259.1,482.9 M-266,482.8L-266,482.8L-266,482.8 M-260.3,482.8l0.2,0.1l0.1-0.1v-0.1
					h-0.1l-0.1-0.1L-260.3,482.8 M-258.8,482.7h0.3c0-0.1-0.1-0.1-0.2-0.1L-258.8,482.7 M-258.5,482.6l0.1,0.1L-258.5,482.6
					 M-259.9,482.6L-259.9,482.6L-259.9,482.6 M-259.1,482.5l0.1,0.1L-259.1,482.5 M-260.1,482.6v-0.1
					C-260.2,482.6-260.2,482.6-260.1,482.6 M-259.2,482.6l0.1-0.1L-259.2,482.6 M-259.6,482.4L-259.6,482.4
					c-0.1,0.2-0.2,0.2-0.2,0.3c0,0,0.2,0,0,0.1l0.2-0.1V482.4 M-262.6,482.4c0-0.1-0.1,0-0.1,0.1L-262.6,482.4
					c0.1,0.1,0.1,0.2,0.1,0H-262.6 M-259.5,482.3C-259.5,482.3-259.6,482.5-259.5,482.3 M-259.9,482.3l0.1,0.1L-259.9,482.3
					L-259.9,482.3 M-258.6,482.3c0.1,0.1,0.1,0,0.1,0.1v-0.1H-258.6 M-258.7,482L-258.7,482L-258.7,482L-258.7,482 M-260.1,481.9
					C-260.2,481.9-260.2,481.9-260.1,481.9C-260.3,482.1-260.1,481.9-260.1,481.9 M-260,482C-260,482-260.1,482-260,482
					 M-257.2,481.9v0.2V481.9 M-264.1,481.8C-264.1,481.7-264,481.7-264.1,481.8L-264.1,481.8 M-259.5,481.7l0.2,0.1v-0.1H-259.5
					v-0.1V481.7 M-263.7,481.7C-263.7,481.8-263.7,481.8-263.7,481.7l0.1-0.2L-263.7,481.7 M-257,481.6v0.2h-0.1v-0.1
					C-257.1,481.7-256.9,481.8-257,481.6L-257,481.6c0.2-0.1,0.1-0.2,0-0.2V481.6 M-258,482.8C-258,482.9-258,482.8-258,482.8
					 M-257.9,482.4l0.1,0.1C-257.9,482.6-257.9,482.5-257.9,482.4v0.1V482.4C-257.8,482.4-257.8,482.4-257.9,482.4 M-258.9,481.6
					l-0.1-0.1l0.3,0.3c0-0.2,0.3,0.2,0.3,0.2l0.1-0.2h0.1v0.1l-0.1,0.1v0.1V482v0.1c0-0.1,0.1,0.1,0.1,0.1h-0.1
					c0,0.1,0.2,0.2,0.1,0.3h-0.1l-0.1,0.1c-0.1,0.3-0.1,0.1-0.2,0.1v-0.1h-0.1v0.4c0,0,0.2,0,0.1-0.1l0.1-0.1c0,0.1,0.1,0.1,0.1,0
					l0.1,0.2v0.1l0.3,0.1c0,0,0.4-0.4,0.2-0.5v-0.1h-0.1c0,0-0.1,0.1-0.1,0c0.1,0,0.1-0.2,0.1-0.2v-0.1h-0.1c0.2,0-0.1-0.3-0.2-0.2
					c0,0,0-0.4-0.2-0.3l-0.2-0.1l-0.1-0.2c-0.1,0,0.1,0.2,0,0.2C-258.7,481.6-258.8,481.6-258.9,481.6v0.1h0.1h-0.1v0.1V481.6
					C-259,481.7-259,481.6-258.9,481.6h-0.2C-258.8,481.4-258.9,481.5-258.9,481.6 M-259.8,481.5L-259.8,481.5L-259.8,481.5
					 M-257.3,481.5L-257.3,481.5L-257.3,481.5 M-259.7,481.4v0.1C-259.6,481.4-259.7,481.4-259.7,481.4 M-257.6,481.4v0.2h0.1
					c0,0.1,0,0.2,0.1,0c0,0.1,0,0.1,0.1,0.1h-0.1c0.1,0,0.3-0.1,0.3-0.2s-0.2,0-0.3,0v-0.1h-0.1c0-0.2-0.1-0.1-0.1-0.1V481.4
					l0.1-0.1L-257.6,481.4 M-264.5,481.4v-0.1V481.4 M-257.3,481.2L-257.3,481.2C-257.3,481.3-257.2,481.2-257.3,481.2
					 M-263.7,481.2L-263.7,481.2L-263.7,481.2 M-257.5,481.2C-257.5,481.2-257.4,481.3-257.5,481.2 M-262.6,481.2l0.1-0.1
					L-262.6,481.2 M-262.7,481.8C-262.6,481.9-262.7,481.8-262.7,481.8 M-262.5,481.4h-0.2c-0.1-0.2-0.1,0.2-0.1,0.2l-0.1,0.1h-0.1
					l0.1,0.1h-0.2v0.1h-0.1c0,0,0,0.3,0.1,0.1v0.1c-0.1-0.1-0.2,0.1-0.2,0.2v0.1l-0.2-0.1v0.1h-0.1v-0.1c-0.1,0-0.1,0.2-0.2,0.1v0.2
					h0.1v0.1h0.1v0.2l0.2,0.1h-0.1l0.2-0.3v-0.1c0,0.1,0.1,0,0.1-0.1l0.3-0.1c-0.1-0.1,0-0.1,0-0.3c0.2,0,0.1,0.1,0.1,0.1
					c0.1,0,0,0,0.1-0.1h0.1V482h0.2c0.1-0.3-0.1-0.4,0.1-0.4c0-0.1,0-0.2,0.1-0.1v0.1c0.2,0,0-0.2,0-0.2h0.2l0.1-0.1
					c-0.1,0-0.1-0.1-0.1-0.2C-262.3,481.1-262.5,481.4-262.5,481.4 M-264,481.1c0,0,0.1,0.1,0,0.2v-0.1v0.2c0.1,0.2,0.2,0,0.1-0.2
					C-263.9,481.2-263.9,481-264,481.1 M-262.4,481C-262.4,481.1-262.4,481.1-262.4,481L-262.4,481L-262.4,481 M-256.9,480.9
					l0.1,0.2V481h0.1v-0.1H-256.9 M-264.2,480.8c-0.2,0.1,0.1,0.4,0.1,0.3l-0.1-0.1h0.1L-264.2,480.8 M-264.2,480.7
					C-264.2,480.8-264.1,480.7-264.2,480.7 M-262.5,480.5L-262.5,480.5L-262.5,480.5C-262.6,480.5-262.6,480.6-262.5,480.5l-0.1,0.2
					v0.1h-0.1c0,0.1-0.1,0.2-0.1,0.1c-0.1,0-0.3,0.2-0.2,0.3c0.2,0,0.2-0.1,0.3-0.3l-0.1,0.1l0.1-0.1l0.2-0.1l-0.1-0.1v-0.1l0.2-0.2
					C-262.4,480.5-262.5,480.5-262.5,480.5 M-262.9,480.5c0.1,0.1,0,0.1,0,0.2h0.2c0.2-0.1,0-0.2,0.1-0.3L-262.9,480.5
					 M-263.5,480.3L-263.5,480.3L-263.5,480.3L-263.5,480.3C-263.3,480.4-263.6,480.4-263.5,480.3L-263.5,480.3L-263.5,480.3
					 M-260.8,480.3l-0.2,0.2h0.1C-260.8,480.5-260.8,480.4-260.8,480.3 M-262.3,480.2c0,0.1,0.1,0.1,0.1-0.1L-262.3,480.2
					 M-258.6,480.1L-258.6,480.1L-258.6,480.1 M-257.3,480l0.1-0.1l-0.1-0.1V480 M-257.7,479.9l0.1,0.1L-257.7,479.9 M-260.9,479.9
					l0.1,0.1L-260.9,479.9 M-260.1,479.9v0.1l-0.1,0.1v0.1h0.1v-0.1C-259.9,480-260,479.9-260.1,479.9 M-257.9,480v-0.2V480
					 M-260.9,479.9C-261,479.8-261,479.9-260.9,479.9 M-256.1,479.9C-256.1,479.9-256,479.9-256.1,479.9h0.2l-0.1,0.2l0.1,0.1
					c-0.1,0-0.1-0.1-0.2-0.1v0.1c0.1,0,0.1,0.1,0.2,0.1l0.3-0.1c0-0.1,0-0.1-0.1,0V480l-0.1-0.1l-0.2-0.1L-256.1,479.9
					 M-256.4,479.8c0.1,0.1,0,0.2,0.1,0.2L-256.4,479.8 M-257.5,479.8c0,0,0,0.1,0.1,0.1L-257.5,479.8 M-256.1,479.7
					C-256.2,479.8-256.1,479.9-256.1,479.7 M-256.9,479.9C-256.9,480-257,479.9-256.9,479.9l-0.1,0.2v0.1h0.2L-256.9,479.9
					c0.1,0.2,0.2,0.2,0.2,0.3l0.1-0.1c-0.1,0,0.1,0.1,0.2,0.1h0.2v0.1c0-0.2-0.1-0.1-0.1-0.1v-0.1l-0.1,0.1l-0.1-0.2h-0.1
					c0-0.1,0-0.1,0.1-0.1h-0.1c-0.1,0-0.2,0-0.2-0.1L-256.9,479.9 M-260.7,479.8L-260.7,479.8L-260.7,479.8 M-258.9,479.7
					L-258.9,479.7L-258.9,479.7 M-259.1,479.7L-259.1,479.7L-259.1,479.7 M-257.1,479.7v0.3l0.1-0.1c0,0.1,0.1-0.1,0.1-0.1
					L-257.1,479.7 M-261.5,479.5v0.2h-0.2v-0.1l-0.1,0.2h-0.1c0,0.1,0.2,0.3,0.3,0.2c0.1,0.2,0.5-0.1,0.3-0.1v-0.1h-0.1
					c0.1,0,0-0.1,0-0.1L-261.5,479.5 M-257.9,479.5v0.1l0.1,0.1c0,0,0.2,0,0-0.1L-257.9,479.5 M-259.4,479.7L-259.4,479.7
					L-259.4,479.7h-0.2v0.1h-0.1v0.1h0.2l0.1-0.3C-259.4,479.6-259.5,479.5-259.4,479.7 M-258,479.6
					C-257.8,479.6-258,479.6-258,479.6 M-260.7,479.5v0.1V479.5 M-262.9,479.6c0.1,0.1,0.1,0,0.1-0.1L-262.9,479.6 M-257.9,479.5
					C-258,479.5-257.9,479.5-257.9,479.5 M-255.2,479.4L-255.2,479.4L-255.2,479.4C-255.2,479.5-255.1,479.3-255.2,479.4
					 M-258,479.2c0.1,0.1,0.2,0.3,0.3,0.1h-0.1L-258,479.2 M-259.6,479.2l0.1,0.1v-0.2L-259.6,479.2 M-259.8,479.2l0.1-0.1
					L-259.8,479.2 M-258.5,479.2l0.2,0.1v0.1h-0.1c-0.3-0.6,0,0,0,0.1h-0.1l0.1,0.1v-0.1l0.1-0.1v0.2l0.1-0.1l0.2,0.1h-0.1
					c0.1-0.2-0.2-0.2-0.2-0.2c0-0.2,0.1-0.4-0.1-0.4v-0.1l-0.2-0.1C-258.5,479-258.5,479.1-258.5,479.2 M-258.7,478.9l0.1-0.1
					L-258.7,478.9 M-258.6,478.8C-258.6,478.9-258.5,478.9-258.6,478.8 M-258.7,478.8v0.1V478.8 M-261,478.7L-261,478.7L-261,478.7
					 M-258.7,478.7C-258.6,478.6-258.6,478.6-258.7,478.7v-0.1C-258.7,478.6-258.8,478.7-258.7,478.7 M-259.9,478.7v0.3l0.1-0.1v0.1
					l0.2-0.1l0.2-0.1c0-0.2-0.1-0.2-0.1-0.2h-0.1c-0.1,0,0,0,0-0.1C-259.8,478.4-259.9,478.6-259.9,478.7 M-255.6,478.4
					L-255.6,478.4L-255.6,478.4L-255.6,478.4 M-262.4,478.3C-262.5,478.4-262.4,478.5-262.4,478.3 M-262.4,478.2v0.2
					C-262.3,478.4-262.2,478.2-262.4,478.2 M-260.8,478.3v-0.1V478.3 M-259.4,478.3v0.1V478.3v0.2c0,0.1,0.1,0.1,0.2,0.1h0.1v-0.3
					l-0.1-0.1C-259.3,478.2-259.4,478.3-259.4,478.3 M-259.5,478.1C-259.5,478.1-259.5,478.3-259.5,478.1 M-262.7,478.3v0.1
					c0.1-0.1,0.1,0,0.1,0.1L-262.7,478.3c-0.1-0.1,0-0.1,0-0.2h-0.1C-262.7,478.1-262.7,478.2-262.7,478.3 M-259.3,478.1V478V478.1
					 M-262.2,478l0.1,0.1h0.1C-262.1,477.9-262.1,478-262.2,478 M-264.9,478C-264.9,478-264.9,478.2-264.9,478l0.1-0.1L-264.9,478
					 M-264.8,478.1l0.1-0.2L-264.8,478.1 M-260.3,477.9L-260.3,477.9L-260.3,477.9l0.1,0.2l0.1-0.1c0,0,0.1,0.3,0.2,0.1
					c-0.1-0.1-0.1-0.2-0.2-0.1v-0.1H-260.3 M-262.5,477.7v0.3c0.1,0.1,0,0.2,0.1,0v0.1C-262.2,478.1-262.5,477.8-262.5,477.7
					l0.1,0.2l0.1-0.1l-0.1,0.1c0-0.1,0.1-0.1,0.1-0.1C-262.5,477.7-262.5,477.9-262.5,477.7 M-257.9,477.7L-257.9,477.7v-0.2V477.7
					 M-256.7,477.6v0.1V477.6 M-255.7,477.6v-0.2V477.6 M-262.4,477.5c0.1,0-0.1,0.2,0,0.2V477.5l0.1,0.2
					C-262.3,477.5-262.4,477.5-262.4,477.5 M-265.1,477.2l0.1-0.1C-265.1,477.1-265.1,477.1-265.1,477.2 M-256.8,477.2L-256.8,477.2
					L-256.8,477.2L-256.8,477.2L-256.8,477.2L-256.8,477.2l0.1,0.2h-0.2c0.1,0.1,0.2,0.2,0.3,0.2l0.1,0.1h0.2l0.1-0.1v-0.2h-0.5
					L-256.8,477.2c-0.1,0.1,0.1,0,0.1-0.1C-256.6,477-256.8,477-256.8,477.2 M-261.5,477.2L-261.5,477.2L-261.5,477.2 M-261.7,477
					l-0.1,0.1h-0.2l0.1-0.1l-0.1,0.2h-0.1c0.1,0,0-0.1,0.1-0.1c0-0.1-0.1-0.1-0.1-0.1v0.3l-0.2,0.1v0.1h-0.1c0,0.2,0.1,0.2,0.2,0.2
					h0.1v-0.1h0.2v0.2c0.1,0.2,0,0.2-0.1,0.2v0.1l0.1,0.1l-0.2,0.2h0.2c0.1,0.1,0.1,0.1,0.3,0c0.1,0,0.4-0.3,0.4-0.1l0.1-0.1
					l0.2,0.1V478c0.2,0.3,0.2-0.4,0.2-0.4c0-0.1-0.2-0.1-0.2-0.1h-0.2c0.1-0.1,0-0.1,0-0.2c0,0-0.3,0.1-0.2,0h0.1l-0.1-0.1
					c-0.1-0.1-0.1-0.1-0.2-0.3h0.1v-0.1L-261.7,477 M-261,476.8v0.2h0.1L-261,476.8 M-257.1,477.5
					C-257.4,477.4-257.1,477.4-257.1,477.5L-257.1,477.5 M-257.2,476.9h-0.3v0.2h-0.1V477l-0.1-0.2h-0.1c0.1,0.1,0,0.2,0,0.3h0.1
					c0,0.1,0.1,0,0.2,0h-0.1c0,0.1,0.1,0,0.1,0.1h-0.1l0.1,0.1h-0.1l-0.1-0.1v-0.1l-0.1,0.1l0.2,0.2v-0.1v0.1h0.2c0,0.2,0.1,0,0.2,0
					c0,0.1,0.1,0.2,0,0.3h0.3c0.1,0.2,0.3,0,0.3,0v0.1v-0.1c-0.1,0.1-0.2-0.1-0.3-0.2l-0.1-0.1v-0.2l-0.1,0.1v-0.1l0.1,0.1v-0.2v0.1
					h-0.1V477L-257.2,476.9l0.1,0.1c0-0.1,0.1-0.2,0-0.3L-257.2,476.9 M-262,476.9v-0.1V476.9 M-262,476.8l0.1,0.2L-262,476.8h0.2
					v0.1l0.1-0.1H-262 M-258,476.7c-0.1-0.1-0.1,0-0.1-0.1h-0.1l-0.2,0.2v0.1l0.1,0.1v-0.1v0.1l0.1-0.1l-0.1,0.1
					c0.1,0,0.1-0.1,0.1-0.2v-0.1C-257.9,476.9-257.9,476.8-258,476.7v-0.2C-258,476.6-257.9,476.7-258,476.7 M-261.5,476.6l0.1,0.1
					h0.1v-0.1l0.1,0.1v0.1h-0.1v0.1c0.1-0.2,0.3-0.1,0.3,0.1v-0.2c0,0.1,0,0,0,0v-0.1h-0.2v-0.1c0,0.1,0.1,0,0.1,0H-261.5
					 M-262.1,476.6L-262.1,476.6L-262.1,476.6 M-255.4,476.6c-0.2,0.1,0.2,0.2,0.3,0.2L-255.4,476.6h0.2H-255.4
					c0.1,0.1-0.1-0.2,0-0.2h-0.2C-255.6,476.6-255.5,476.6-255.4,476.6 M-262.7,476.4C-262.7,476.6-262.6,476.4-262.7,476.4
					 M-262.5,476.5L-262.5,476.5L-262.5,476.5c-0.2,0-0.3,0.1-0.3,0h-0.1v0.2l-0.1,0.1c-0.1,0.3,0.2,0.1,0.4,0.2v-0.1l0.1-0.2V476.5
					L-262.5,476.5L-262.5,476.5L-262.5,476.5c0.1,0,0.2,0.1,0.2-0.1h-0.1c0,0-0.1,0-0.1-0.1V476.5 M-258.2,476.4h-0.1H-258.2
					 M-257.7,476.3c0,0.3,0.3,0.1,0.3,0.1h-0.1L-257.7,476.3 M-256.9,476.3l-0.2,0.2v0.2h-0.1c0.1,0,0,0,0,0l0.2,0.4
					c0-0.1,0-0.3,0.1-0.2v0.1c0.1,0,0.2-0.1,0.2-0.2v0.1l0.1-0.1v-0.5h-0.1c0,0.1,0.1,0.2,0.1,0.3c0,0-0.1-0.3-0.2-0.2L-256.9,476.3
					v0.1V476.3v0.1C-256.9,476.3-256.8,476.3-256.9,476.3C-256.8,476.2-256.9,476.3-256.9,476.3 M-257.1,476.2c0,0,0.1,0.1,0.1-0.1
					L-257.1,476.2 M-260.3,476c-0.1,0.2-0.1,0.2,0,0.2c0,0-0.1,0.1,0,0.2C-260.3,476.2-260.2,476.1-260.3,476 M-261.1,476l-0.1,0.1
					L-261.1,476c-0.2,0-0.1,0.2-0.1,0.1l-0.1,0.1h0.4v0.1v-0.2C-260.8,476.1-261,476.1-261.1,476C-260.9,476-261.1,476-261.1,476
					 M-254.8,476C-254.8,476.2-254.7,476-254.8,476L-254.8,476L-254.8,476 M-261.2,475.7L-261.2,475.7L-261.2,475.7 M-260.8,475.6
					l0.1,0.1h-0.1c-0.1,0.1,0.1,0.1,0.1,0v0.1c0.1,0,0.1,0,0.1-0.1h-0.1L-260.8,475.6L-260.8,475.6L-260.8,475.6L-260.8,475.6
					L-260.8,475.6l0.1-0.1h-0.1V475.6 M-259.2,475.6c0.1-0.1-0.2-0.1-0.2,0l-0.1-0.1v0.1l-0.1-0.1v0.1c0,0,0.2,0.3,0.3,0.2
					c0-0.2,0.3-0.1,0.3-0.1l0.1,0.1l0.1,0.1v0.1l-0.2-0.1l-0.1,0.1l0.2,0.2c0,0.1,0.1,0.1,0,0.1v0.1h-0.1c0,0.1,0.1,0.1,0.1-0.1
					c0.1,0,0.1-0.3,0.2-0.4v0.1c0,0.1,0,0.1-0.1,0.2l0.1-0.1h0.1V476h-0.1c0.1,0-0.3-0.4-0.2-0.5l-0.1,0.1v-0.2L-259.2,475.6
					 M-261,475.5L-261,475.5l0.1,0.2h0.1h-0.1C-260.8,475.6-261,475.4-261,475.5 M-259.8,475.7h-0.2v-0.2c0,0,0-0.1-0.1,0l-0.2,0.2
					v0.1v-0.1c0,0.1,0.1,0.2,0.2,0c0,0.1,0,0.2,0.1,0.1c-0.1,0.1,0.1,0.2,0.1,0.2v0.1V476l0.2,0.1
					C-259.7,476-259.8,475.7-259.8,475.7h0.1H-259.8c0.1,0,0-0.1,0.1-0.2l-0.1-0.1V475.7 M-261.6,475.3L-261.6,475.3
					c-0.1,0.1,0,0.1,0.1,0.2v0.1c0.1-0.1,0.1-0.1,0.1-0.2C-261.4,475.3-261.5,475.3-261.6,475.3L-261.6,475.3 M-260.9,475.1v0.1
					V475.1 M-261.7,474.9L-261.7,474.9L-261.7,474.9 M-259.6,474.9l-0.1,0.1h0.1C-259.7,474.9-259.5,474.9-259.6,474.9L-259.6,474.9
					 M-259.8,474.8L-259.8,474.8l-0.2,0.1v0.2c0.1,0,0.2,0.2,0.2,0V474.8l0.1,0.2L-259.8,474.8L-259.8,474.8 M-258.5,474.1h0.2
					C-258.3,474-258.4,474.1-258.5,474.1L-258.5,474.1L-258.5,474.1L-258.5,474.1 M-260.8,474.1h0.1c0.1,0,0.1-0.2,0.1-0.2h-0.1
					C-260.8,473.9-260.8,474-260.8,474.1 M-258.7,474v0.2V474L-258.7,474L-258.7,474c0,0,0.1-0.1,0-0.1V474 M-260.9,473.8
					C-260.8,473.8-260.8,473.9-260.9,473.8 M-259.6,473.7C-259.7,473.8-259.6,473.7-259.6,473.7 M-260.8,473.8L-260.8,473.8v-0.1
					C-260.8,473.6-260.9,473.8-260.8,473.8 M-260,473.6v0.1V473.6v0.1c0-0.1-0.1,0.1-0.2,0.2h0.1h-0.1h0.1v-0.1v0.1h0.1h-0.1h0.1
					v-0.1l0.2-0.1v-0.1L-260,473.6 M-259.5,473.5C-259.5,473.4-259.6,473.5-259.5,473.5L-259.5,473.5c0.1,0.1,0,0.3,0.1,0.2
					c0,0.1,0.1,0.2,0.1,0.1c0.1,0,0.1,0,0.2-0.1v0.1h0.1l0.1-0.1h-0.2c0,0,0-0.1-0.1-0.2l0.1,0.1h-0.2v-0.1v0.1L-259.5,473.5
					C-259.5,473.6-259.5,473.6-259.5,473.5 M-257.9,473.4C-257.9,473.5-257.9,473.4-257.9,473.4 M-259.6,473.4v-0.1V473.4
					 M-261.7,473.2l-0.1,0.2L-261.7,473.2v0.2V473.2 M-257.8,473.2C-257.5,473.3-257.7,473.2-257.8,473.2v-0.1V473.2 M-260.4,473.1
					l-0.1,0.1L-260.4,473.1L-260.4,473.1l-0.2,0.2L-260.4,473.1L-260.4,473.1v0.1l0.2-0.1C-260.2,473.1-260.4,473.2-260.4,473.1
					 M-260.3,473L-260.3,473l0.1,0.2l0.1-0.1c-0.1,0,0,0-0.1,0.1C-260.2,473-260.1,473-260.3,473 M-258.2,473L-258.2,473L-258.2,473
					 M-260.1,472.9v0.1V472.9 M-259.8,472.9C-259.8,473-259.7,472.9-259.8,472.9L-259.8,472.9 M-260.7,471.4
					c-0.3,0.2-0.1,0.3-0.1,0.2v-0.1L-260.7,471.4v0.1V471.4 M-258,471.4v0.2c0.1-0.1,0.1-0.2,0.1-0.3L-258,471.4 M-261.4,471.2
					L-261.4,471.2c-0.1,0.2,0,0.2,0,0.2V471.2 M-261,471.2v-0.1V471.2 M-261.7,471.1L-261.7,471.1L-261.7,471.1 M-260.8,470.9v0.2
					c0,0.1,0.1,0,0.1,0L-260.8,470.9h0.1c-0.1,0.1,0.1,0,0.1,0C-260.7,470.9-260.7,470.8-260.8,470.9 M-262.2,471.1L-262.2,471.1
					L-262.2,471.1 M-261.5,470.9c0.1,0.1,0,0.1,0,0.1v0.1h0.1l-0.1,0.1c0.3-0.1,0-0.1,0.1-0.2l-0.1,0.1V470.9 M-262.8,470.8
					C-262.7,470.8-262.8,470.8-262.8,470.8 M-259.6,470.7c-0.1,0.1,0,0.1-0.1,0.1c0,0,0.1,0.2,0.1,0.1l-0.1-0.1L-259.6,470.7
					 M-260.8,470.6v0.2C-260.9,470.7-260.8,470.7-260.8,470.6l-0.1,0.2L-260.8,470.6L-260.8,470.6 M-262.6,470.6L-262.6,470.6
					l-0.1,0.2c0,0-0.1,0.1,0,0.1v0.1v-0.1l0.1,0.2c0.1-0.2,0,0.2,0.1,0.2l0.1-0.1v0.1v-0.1h-0.1l0.1-0.1V471v0.1l-0.1-0.1
					c-0.1-0.1,0.1-0.1,0.1-0.2L-262.6,470.6 M-261.7,470.5C-261.6,470.5-261.7,470.6-261.7,470.5 M-262.8,470.2
					C-263,470.2-262.7,470.3-262.8,470.2 M-259.8,470.2C-259.8,470.3-259.7,470.4-259.8,470.2C-259.8,470.2-259.8,470.3-259.8,470.2
					 M-261.7,469.9l0.1,0.2l0.1-0.1c0.1,0.1,0.2,0,0.2,0.2h-0.1v0.1h-0.1c0.1,0.1,0.1,0.2,0,0.2v0.1l0.3-0.1l-0.2-0.1
					c0.1,0,0.1-0.2,0-0.3l-0.1-0.1v-0.1v0.1v-0.1L-261.7,469.9 M-261.5,469.8C-261.5,469.7-261.7,469.8-261.5,469.8 M-261.7,469.6
					v0.1V469.6 M-261.3,469.4C-261.3,469.6-261.2,469.4-261.3,469.4 M-256.3,487.8L-256.3,487.8L-256.3,487.8 M-254.2,484.8
					C-254.2,484.7-254.2,484.7-254.2,484.8 M-260.8,467.5V464c0-0.4-0.3-0.7-0.7-0.7h-8.2c-0.4,0-0.7,0.3-0.7,0.7v18.4
					c0,0.5-0.4,0.6-0.6,0.2l-7.2-17.4l-0.3-0.7c-0.5-1.1-0.5-1.2-1.9-1.2h-8.9c-0.4,0-0.7,0.3-0.7,0.7v36.4c0,0.4,0.3,0.7,0.7,0.7
					h7.8c0.4,0,0.7-0.3,0.7-0.7V482c0-0.5,0.4-0.6,0.6-0.2l7.2,17.4l0.3,0.7c0.2,0.7,0.9,1.2,1.6,1.2h5.5c2.3,0,4.2-1.9,4.2-4.2
					v-9.5c-0.1,0-0.2-0.1-0.3-0.1l-0.1-0.1l0.1,0.2h-0.2v-0.1v0.1l0.1-0.1h-0.2c0,0.2,0,0.3,0.1,0.2h0.1l0.1,0.1h-0.1l0.1,0.1
					c0,0-0.2,0-0.2-0.1v0.2v-0.1l-0.1,0.1l-0.1,0.1c-0.1,0.2,0,0.2,0,0.2h-0.3c-0.2,0-0.3,0.1-0.5,0.1l0.1-0.1l-0.1,0.1l-0.2-0.1
					h0.1c-0.1-0.1,0-0.3-0.2-0.3v0.2l-0.1-0.2l-0.1,0.1l-0.2,0.5v-0.1l0.1,0.1h-0.1l0.1,0.1l-0.1,0.4v-0.1c-0.2,0-0.2,0-0.2,0.2
					h-0.1v-0.1l-0.1,0.2h-0.1c0-0.1,0.1-0.3,0.1-0.4h-0.1l-0.2,0.2v-0.1l-0.1,0.3l-0.2,0.1v-0.1h-0.1c0,0.3,0.2,0.2,0,0.2v0.1
					c-0.1,0.1-0.1,0.3-0.2,0.1c-0.1-0.2,0-0.3,0-0.3c0.1,0,0.1-0.3,0.2-0.4l-0.1,0.1v0.1v-0.1h-0.2c0,0-0.1-0.2-0.2-0.2
					c0-0.2-0.1-0.2-0.2-0.3l0.1-0.1l-0.1-0.2c0,0,0.1-0.1,0.2,0.1v-0.1c0.1-0.1,0.1-0.5,0.3-0.4c-0.2-0.2,0-0.4,0.1-0.5
					c0-0.1,0-0.5,0.2-0.3v-0.1h0.1v-0.1h0.1l-0.1-0.1l0.1-0.1h0.1h-0.3v-0.1v0.1v-0.2l0.3,0.1c0.1-0.1,0-0.2,0-0.2
					c0-0.1,0-0.2,0.1-0.3v0.1v-0.2v0.1l-0.1,0.1l-0.2,0.2v-0.1l-0.1,0.2h-0.1l-0.3,0.3v-0.1c-0.1,0.1-0.2,0.5-0.2,0.3l0.1,0.1
					c-0.1,0-0.2,0.1-0.1,0.2c-0.1-0.1,0,0.3-0.2,0.3c-0.1,0-0.1,0.2-0.2,0.3l-0.1-0.3h-0.1v0.1h-0.1c0,0.2-0.1,0.1-0.1,0.1h0.2v0.1
					l0.1-0.1v0.1h-0.1v0.1v-0.1v0.1h-0.2v-0.2h-0.1c0.1,0.1-0.1,0-0.1-0.1l-0.1-0.1l0.1-0.1h0.1v-0.2l0.1-0.2h0.1l0.1-0.1l-0.2,0.5
					l0.1-0.1l-0.1-0.3l-0.2,0.2c-0.2,0.2-0.4,0.3-0.3,0h0.1c0-0.1-0.2-0.4-0.1-0.4c-0.4-0.3,0-0.3,0.1-0.3c0,0,0.1-0.3,0.2-0.1
					c0.1-0.2,0.3-0.1,0.4,0h-0.1l0.1,0.2v-0.1l0.2-0.1h-0.1c0-0.1,0.1-0.1,0.1,0h0.1h-0.1c0,0,0.4-0.2,0.4-0.3l-0.1,0.1
					c0-0.1,0.1-0.1,0.1-0.1v-0.1h0.1v0.1c0.2-0.2,0.4,0,0.4-0.3h0.1v0.2l0.1-0.2c0.1,0.1,0.2-0.1,0.2-0.2c-0.2,0.1-0.5-0.1-0.6-0.1
					v-0.1h-0.2c0.1,0.1,0,0.1,0,0.2l0.1,0.1h-0.1l-0.2,0.1v-0.1h-0.1c0-0.1,0,0,0,0v-0.1c0,0-0.1,0,0,0.1h-0.1l0.2,0.1
					c0.1,0.1,0,0.3-0.1,0.1v-0.1l-0.1,0.1l0.1,0.2h-0.1l0.1-0.1l-0.1,0.1v0.2h-0.2c-0.1,0,0-0.3,0.1-0.3c0,0-0.1-0.3-0.1-0.1h0.1
					h-0.1v0.2v-0.1c0,0-0.2,0.1-0.1,0.1h-0.1v-0.2v0.1h-0.2c0,0.1-0.1,0-0.1,0.1v0.1l0.1,0.1c-0.1,0.1-0.1,0.2-0.2,0.3h-0.2l0.1-0.1
					h-0.4v-0.1v0.2v-0.1h0.1c0,0.1-0.2,0.2-0.2,0.2c0.1,0,0.1,0.1,0,0.2h-0.2v-0.3l0.1,0.1l-0.1-0.2h-0.1c0,0,0-0.2-0.1-0.1
					c0-0.1,0.1-0.1,0.1-0.1h0.1l-0.1-0.1h0.1c-0.1,0.1,0.1,0,0.1,0h-0.1c0.1-0.1,0-0.1,0-0.2c0,0.1,0.1,0.1,0.2,0.1v0.1V486
					c0.1,0,0.2,0,0.2-0.1h0.1l-0.1-0.1l0.1-0.1h0.1h-0.1v-0.2v0.1c0,0.1-0.1,0.1-0.1,0.1h-0.1l0.1-0.1l-0.1,0.1h0.1v0.1
					c-0.1-0.1-0.2,0-0.2,0.1h-0.1c0-0.1-0.2-0.2,0-0.2c0-0.1-0.3-0.3-0.2-0.4c0-0.1-0.1-0.4-0.2-0.6h0.1c0-0.1,0.4-0.6,0.4-0.8h0.1
					c0,0,0-0.4,0.2-0.2h-0.1h0.1v-0.3l-0.1,0.1c0-0.1-0.2-0.2-0.2-0.4c0.2,0,0.3,0,0.4-0.1c0-0.2-0.1-0.1-0.1-0.2h0.1v-0.1
					c0.2,0.1,0.1,0,0.3,0.2c0.1,0.1,0.1,0,0.1-0.1h0.1v-0.4c0.2-0.1,0.2-0.3,0.2-0.5c-0.1-0.2,0.1-0.2,0.1-0.3c0,0,0.2,0.1,0.1-0.1
					v-0.1c-0.2,0.2,0.1-0.1,0-0.2h0.1c0,0,0.1,0.2,0.2,0.1c-0.1-0.1,0-0.1,0-0.2h0.1c-0.1,0.1,0.3,0.3,0.4,0.3v0.1h-0.2l0.1,0.1
					c0-0.1,0-0.1,0.1-0.1v-0.1h-0.1v-0.2l0.1,0.1h0.1v-0.1h0.1v0.1c0,0,0.1,0,0.1-0.1h-0.1c0.1,0,0.2,0.1,0.1-0.1h0.1
					c-0.1-0.1,0.1-0.1,0.2-0.1c0-0.1-0.2-0.2-0.2-0.1l0.1-0.1c0-0.1-0.1,0.1-0.1,0.1v-0.1h-0.1v0.2v-0.1v0.1h-0.2l-0.1,0.2
					c0,0.1-0.1-0.2-0.1-0.4c-0.1-0.2-0.1-0.5,0-0.3c0-0.1,0-0.2-0.1-0.2s-0.1,0-0.1-0.2h0.3h-0.1l0.3-0.3h0.1c0-0.2,0.3-0.1,0.3,0
					c0.1-0.1,0.5-0.1,0.6-0.1c0-0.1,0.1-0.3,0.1-0.2h0.1v-0.3l0.3-0.2h-0.1h0.3l0.1-0.1h0.1v-0.1c0-0.1-0.2-0.1-0.3-0.1h0.1
					c0-0.2-0.3-0.3-0.2-0.2v-0.1v0.2c-0.1-0.1,0,0-0.1,0.1c-0.1,0-0.2-0.3-0.2-0.4c0.1,0,0.2-0.2,0.1-0.2V478c0,0,0.3-0.4,0.4-0.6
					l0.1-0.1l0.1-0.1c-0.1-0.1,0,0-0.1-0.2h-0.1l0.1-0.1h-0.1c-0.1,0-0.2-0.1-0.3,0.1l0.1,0.1h-0.2V477l-0.1,0.1v0.2
					c0-0.1-0.2,0-0.2,0.1s-0.3,0.1-0.3,0h0.2c-0.1,0,0.1-0.3,0-0.3V477l-0.2,0.1c0.2,0,0,0.2-0.1,0.3h-0.2v0.2h-0.2
					c0,0,0-0.2-0.1-0.1v0.1c0-0.2-0.4,0.2-0.2,0.2c0.1,0.1-0.2,0.1-0.2,0.1v0.1l0.1-0.1v0.1v-0.1v0.1h-0.1l-0.1,0.1v0.2h-0.2
					c0.1,0,0.1-0.2,0.1-0.2h-0.1c0,0.3-0.2,0.2-0.2,0.1l-0.1,0.1h0.1l-0.1-0.1v0.2c0-0.1,0-0.2,0.1-0.2l-0.3,0.1l0.1,0.1h-0.2
					l-0.2-0.2l-0.1,0.1c-0.1-0.1,0.1-0.5,0.1-0.7v0.1c0-0.2,0-0.4,0.1-0.4l0.1-0.2c0.2,0,0.2,0.1,0.3,0.2c-0.1-0.1,0,0,0,0h0.2
					c0,0,0-0.1-0.1-0.1h-0.2l-0.1-0.1l0.1-0.1v-0.5c-0.1,0,0,0.1,0,0.1c-0.2-0.3-0.1-0.3,0-0.5h0.3v-0.4l0.1-0.1
					c0.1,0,0.1,0.1,0.1,0.2l0.2-0.1c0.1-0.1,0.2-0.1,0.2,0.1l0.1-0.2v0.1c0,0,0.1-0.2,0-0.2v0.1c0-0.2-0.2-0.3-0.1-0.5l0.2-0.3
					c0.1-0.1,0.2-0.1,0.4-0.3h-0.1h0.3l0.1-0.1c0,0.1,0.1,0.2,0.1,0.2v-0.1c0.1,0.1,0.1,0,0.1,0c0-0.1,0.4-0.2,0.4-0.2v-0.4v0.1
					l0.1-0.1l0.2-0.1c0-0.1,0.2-0.1,0.2-0.3l0.1,0.1l-0.1-0.2h0.1v0.1h0.1c0,0,0-0.1,0,0v0.1l0.1,0.1v-0.1c0-0.1-0.1-0.2,0-0.3
					c0,0-0.5,0.2-0.6,0.2l-0.1-0.1c0,0-0.5,0.3-0.6,0.1h0.1l-0.3-0.1v0.1V473c0.1-0.1,0.3,0,0.3-0.2c0,0,0.3,0,0.3,0.2
					c0.3-0.5,0.3-0.4,0.3-0.6c0,0,0.2-0.1-0.1,0l-0.1,0.1v-0.3l0.1,0.1l0.1-0.2v0.1v-0.1v0.1v-0.3l0.1,0.2l0.1-0.4h0.3l-0.1,0.1h0.2
					l-0.1-0.1l-0.1-0.1c0.1,0,0,0,0-0.1s-0.1-0.1-0.1-0.1s-0.3-0.1-0.3-0.3c0.1,0.2,0.1-0.2,0.1-0.2c0,0.1-0.1,0.1-0.2,0h-0.1
					c0-0.1,0-0.2,0.1-0.3h-0.1c0-0.1,0-0.2-0.1-0.3c0.2,0,0-0.3-0.1-0.3c-0.1-0.3,0.2-0.2,0.3-0.4h-0.1c0-0.2,0.3-0.4,0.5-0.4
					l0.2,0.2h0.1c-0.2,0-0.2-0.4-0.1-0.5c0.2,0,0.5-0.3,0.7-0.3l0.1,0.1c0.1,0.1,0.2,0.2,0.2,0.1v0.1c0-0.1,0.4-0.1,0.3,0.2
					c0,0,0.1,0,0.1,0.1l0.1-0.1c0.1,0,0.5,0,0.5,0.1l0.1-0.2c0-0.1,0.1-0.2,0.1-0.2v0.1h0.1v-0.1v0.1h0.3c0.1,0,0.3,0,0.3-0.1
					c0,0.3,0.2,0.2,0.2,0.4v-0.1v0.1v-0.1l0.1,0.1c0,0-0.1,0.1,0,0.2c-0.1,0.1,0,0.2,0,0.3v-0.1l-0.1,0.2c-0.1-0.1-0.2,0-0.3,0
					c0,0.2,0.2,0.3-0.1,0.4h0.1h-0.1c0,0,0.6,0.5,0.2,0.5c0,0,0.3,0.2,0.3,0l0.3-0.3v0.1c0.1,0,0.1-0.3,0.1-0.3h0.1
					c0.1-0.1,0.2-0.1,0.2,0.1c0.1-0.1,0.1-0.1,0-0.2v-0.2l0.2-0.1v0.3c0,0-0.1,0.2,0,0.3c0,0,0.4-0.2,0.2-0.3h0.3
					c0.1,0.1,0.2,0.2,0.1,0.4c0,0-0.1,0.2-0.2,0.3h0.1c0,0-0.1,0,0,0.2l0.1-0.1v0.2c0,0.2,0.2,0,0.2,0.3c0-0.1,0.1,0.3,0.1,0.4
					l0.1-0.1c0.1,0.2,0,0.3-0.1,0.4c0.1,0.1,0.1,0.1,0.1,0.3v0.1l0.2,0.1c0.1,0,0,0.1,0.1,0.2c0,0.2-0.1,0.2-0.1,0.2l-0.3,0.6
					l-0.3-0.2v0.1h0.1v0.3c0,0.1,0.2,0,0.2-0.2l0.1,0.1c0-0.2,0.1-0.1,0.2-0.2c0.1,0.1,0.3,0,0.2,0c0.1-0.2,0.2-0.1,0.4-0.1v0.1
					l0.1-0.1h0.1c0,0.2,0.1,0.2,0.2,0c0.2,0,0,0.5,0.1,0.6c0,0.1,0,0,0,0v0.2h0.2l-0.1,0.2l-0.2,0.2l0.1,0.2c-0.1,0,0,0.1-0.1,0.2
					c-0.2-0.5-0.2-0.3-0.1-0.2v0.1c0-0.1,0.1-0.1-0.1-0.1l-0.1,0.1c-0.2,0,0,0.2,0,0.3c0.1-0.2,0.2-0.1,0.3-0.1h0.2
					c0,0.1,0.1,0,0.2,0h0.1v0.1c0.1-0.1,0.3,0,0.3-0.4c0.1,0,0.1,0,0.2-0.1v0.1h0.1v0.1h0.1v0.2c0,0,0,0.1-0.1,0.2
					c0,0.1-0.1,0.2-0.2,0.2c0.1,0.1,0,0,0,0.1l0.2,0.1c0.1,0.1,0.2,0.2,0.3-0.1l0.3-0.2l0.1,0.2l0.1-0.1v0.1v-0.1h0.1l-0.1,0.4
					l-0.1-0.1l-0.1,0.1h-0.1v0.1l-0.1,0.1h0.1c0,0.2,0.2,0.2,0.3,0.3c0,0.3-0.1,0.3-0.3,0.4h0.1c0-0.2-0.1,0-0.1,0
					c-0.1,0.1-0.2,0.3-0.4,0.3v0.2v-0.1v0.4c0,0-0.1-0.2-0.1,0.1l-0.1-0.3v0.2c0-0.1-0.1-0.1-0.2-0.1c0.1,0.1,0,0.1,0.1,0.3h-0.2
					v-0.2v0.1v-0.2l-0.2,0.2l-0.1-0.2v0.2l0.1,0.1v-0.1l0.1,0.1l0.1-0.1v0.1h0.1c0,0,0.1,0.1,0,0h0.1v0.1l0.2-0.1v0.2
					c0.1-0.1,0.1,0,0.3,0.1l0.1-0.1c0,0.2,0,0.3-0.2,0.3c0.1,0.1-0.2,0.2-0.2,0.2c-0.1,0-0.1-0.1-0.1,0.1h-0.2v0.1h-0.1v0.1v-0.1
					c0,0,0.1,0.1,0.1,0c0.2,0.1-0.3,0.3,0.3,0.1l0.1,0.1l0.1,0.1l-0.1,0.4h0.1h-0.1v0.3c0.2-0.1,0.1,0.2,0,0.2v0.2
					c0.5,0.1-0.3,0.7-0.2,0.5v-0.3h-0.2c-0.3,0,0-0.1-0.1-0.2h-0.1v0.1h-0.1c0.1,0,0.1,0,0.1,0.1c-0.1,0-0.2,0-0.1,0.1h-0.1h0.1
					h-0.1c-0.1,0,0.1,0.2,0.2,0.1l0.1,0.2v0.1c0.1-0.2,0.1,0,0.2,0.1v-0.1c0,0-0.1,0.3-0.2,0.2l0.1,0.1c-0.1,0-0.2,0.1-0.1,0.1
					c0.1-0.1,0.1,0.1,0.1,0.2h-0.6v-0.2h-0.1v-0.1l-0.1,0.1h0.1l-0.3,0.2v0.1h-0.1v0.1c0,0,0-0.2-0.1,0h-0.1v0.1h0.1v0.2h-0.1
					l-0.2,0.3h0.1h-0.2c0,0,0.1-0.1,0.1,0v0.1c0.1,0.1,0.1,0.2,0.2,0.1v0.1c0.1,0,0-0.2,0.1-0.1c0,0,0.1,0.3,0.1,0.1v0.1
					c0,0,0.4,0,0.3,0.2v0.1l0.1-0.1c0.1,0,0.4,0,0.5-0.1c0,0.1,0.1,0.1,0.2,0v0.2l0.1-0.2c0,0.2,0.1-0.1,0.2-0.1h0.1v0.4l0.1-0.1
					v0.2l-0.1,0.1h0.1v0.2l0.2,0.2c0.1-0.1-0.1-0.1,0.1-0.1c0,0.1,0.1,0,0.1-0.1v0.1h0.3c0.1,0-0.1,0.1,0,0v-0.1h0.1v0.1
					c0,0.1,0.2,0,0.1,0.1v-0.1l0.3,0.5v-0.1v0.2c-0.2,0.3-0.1,0.3-0.3,0.3h-0.1h0.1h-0.1c-0.1,0-0.1,0.1-0.3,0
					c-0.1,0-0.2,0.1-0.2,0.2v0.2c0,0-0.2,0.2-0.2,0.1v0.1l-0.1,0.1c0,0,0.2,0.1,0.2,0l0.1-0.1c0.1-0.1,0.1-0.2,0.2,0.1
					c0,0,0.1-0.2,0.1,0c0-0.1,0.1-0.1,0.1,0h0.1V485v0.1V485l0.1,0.1l0.2-0.1v0.1c0.1-0.2,0.4-0.4,0.5-0.4c0,0.2,0.3,0.1,0.2,0h0.2
					v0.5c-0.2,0-0.4,0-0.5,0.2h-0.2v0.2l-0.1,0.1v0.2h0.1v0.2l0.2,0.2v0.1v-0.1h-0.5l-0.3,0.3h-0.1l-0.1,0.1v-0.1h-0.2
					c-0.1,0.1-0.3,0.2-0.4,0.3l-0.1-0.2l-0.1-0.1l-0.1,0.1l-0.1,0.2v0.1l-0.1,0.1c0.1-0.1,0.1,0,0.1,0l-0.1,0.1v-0.1l-0.1-0.1v0.1
					l-0.1,0.1l-0.1-0.1h0.1h-0.1c0-0.1,0,0,0.1-0.1l-0.1-0.1c0,0.3-0.1,0.2,0.1,0.4h-0.2h0.1v0.1c-0.1,0,0,0.1,0,0.2v-0.1l-0.1,0.2
					c0.2,0.1,0.2,0.1,0.1,0.1l-0.2-0.1l-0.4-0.3c0.1-0.2,0-0.1,0-0.2s-0.1-0.1,0.1-0.2v-0.1l-0.1,0.1v-0.1c-0.1,0-0.3-0.1-0.3-0.2
					h0.1v-0.1h0.1v-0.1l0.1,0.1l0.1,0.1v0.1c0.1-0.1,0-0.2,0-0.3h-0.1v-0.1v0.1l-0.1,0.1l0.1,0.1h-0.1v-0.1c0,0-0.1-0.1-0.1,0v-0.2
					l0.2-0.1h-0.1l0.1-0.1V486c0.1-0.2-0.2-0.2-0.1-0.2h-0.1v-0.2c0.1,0,0.1-0.1,0-0.1v0.1c-0.1-0.2,0-0.1,0-0.4h-0.1l0.1,0.1
					c-0.1,0-0.5-0.2-0.4-0.4v0.1c0.1-0.1,0-0.1,0-0.1v-0.1l-0.2,0.2l0.1,0.3l-0.1,0.2h-0.1c0,0-0.5,0.3-0.4,0.1h-0.3
					c0-0.1-0.3-0.1-0.3,0v0.1h0.1l0.1,0.1l-0.1,0.1c0,0,0.1,0.1,0.1,0.2c0.2,0,0.3,0.1,0.6,0.2v-0.1l0.1,0.1v0.1h0.3
					c-0.1,0.1,0.2,0.1,0.2,0.1l-0.1,0.2c0.1-0.1,0.3,0.2,0.1,0.2c0-0.1-0.1-0.2-0.2-0.2v-0.2v0.1c0-0.1,0,0-0.1,0.1v-0.1l-0.2-0.1
					h-0.2h0.1h-0.1c0-0.1-0.1-0.1-0.2-0.1v0.1c0-0.1,0-0.2-0.2-0.2h-0.1v0.1h-0.1v0.1l-0.2,0.2c-0.1-0.2-0.3-0.2-0.4-0.1v-0.1
					l-0.2-0.1h-0.1v-0.1v0.1v-0.1l-0.3-0.1h-0.2h0.1l-0.2-0.1v0.2l-0.1,0.1v-0.1h-0.2v0.1h-0.1v0.2h0.1v0.1h-0.1
					c0,0.1,0,0.1,0.1,0.1l0.1,0.1h-0.1h0.1c0.1,0.1-0.1,0.2,0.1,0.3l-0.2,0.2l-0.1-0.1h-0.1v-0.1l-0.1,0.1l-0.1,0.1v9.8
					c0,2.3,1.9,4.2,4.2,4.2h8.5c8.8,0,11.9-4.1,13-8c0.4-1.6,0.6-3.2,0.6-4.3v0.2v-2.4c0-0.4-0.3-0.7-0.7-0.7h-7.8
					c-0.4,0-0.7,0.3-0.7,0.7v0.3c0,3.6-0.5,5.2-4.3,5.2c-4,0-4.3-2.5-4.3-6.5v-7.6c0-4,0.3-6.5,4.2-6.5h0.1c3.9,0,4.3,1.6,4.3,5.4
					v0.4c0.1,0.3,0.4,0.6,0.7,0.6h7.8c0.3,0,0.6-0.2,0.7-0.5v-2.1c0-1-0.1-3.1-0.5-4.7c-1-3.8-3.9-7.9-12.3-8.1h-2.4
					C-256,462.4-259.1,464.7-260.8,467.5"/>
			</defs>
			<clipPath id="SVGID_2_">
				<use xlink:href="#SVGID_1_"  style="overflow:visible;"/>
			</clipPath>
			<path class="st1" d="M-290,462.4h55.9v38.8H-290V462.4z"/>
		</g>
	</g>
	<g>
		<path class="st0" d="M-234,500.8l0.3-0.3c0.3,0.2,0.5,0.3,0.8,0.3s0.5-0.1,0.5-0.3l0,0c0-0.2-0.1-0.3-0.6-0.4
			c-0.6-0.1-0.9-0.3-0.9-0.8l0,0c0-0.5,0.4-0.8,0.9-0.8c0.4,0,0.7,0.1,1,0.3l-0.3,0.4c-0.2-0.2-0.5-0.3-0.7-0.3
			c-0.3,0-0.4,0.1-0.4,0.3l0,0c0,0.2,0.1,0.3,0.6,0.4c0.6,0.1,0.9,0.3,0.9,0.8l0,0c0,0.5-0.4,0.8-1,0.8
			C-233.3,501.2-233.6,501.1-234,500.8z"/>
		<path class="st0" d="M-231.3,498.5h0.5l0.8,1.3l0.8-1.3h0.5v2.7h-0.5v-2l-0.8,1.3l0,0l-0.8-1.2v1.9h-0.5V498.5z"/>
	</g>
	<g>
		<path class="st0" d="M-219.9,481.4c2.1,0,3.2,0,3.7-0.3l0.1,0.1l-0.6,1.4h-4l-0.9,4h2c2.5,0,3-0.4,3.4-1.2c0.1-0.2,0.3-0.1,0.3,0
			l-0.7,2.2c0,0.1,0,0.1-0.2,0.1h-7.3c-0.1,0-0.1-0.1,0-0.1l0.3-0.2c0.2-0.1,0.3-0.3,0.4-0.6l1.4-6.3c0.5-2.1,0.7-3.3,0.4-3.8
			l0.1-0.3h4.3c0.8,0,2.3-0.1,2.3-0.1c0.4,0.6,0,2.4-0.2,2.5h-0.2c0.2-1-0.7-1.3-1.6-1.3h-2.8l-0.9,3.8H-219.9z"/>
		<path class="st0" d="M-212.8,487.6c0,0.1-0.1,0.2-0.2,0.2h-1.9c-0.1,0-0.1-0.1,0-0.2l0.5-0.4c0.2-0.1,0.2-0.4,0.3-0.7l1.3-5.7
			c0-0.2,0-0.4-0.1-0.5l-0.5-0.5c0-0.1,0-0.1,0.1-0.2l1.8-0.2c0.3,0,0.5,0.1,0.2,1.2l-0.2,0.8l0.1,0c1-1.4,2.1-1.9,3-1.9
			c1.6,0,2.3,1.1,1.7,3.5l-0.8,3.2c0,0.2-0.1,0.7,0.2,0.7c0.3,0,0.6-0.4,1.1-1.1l0.3,0.2c-0.6,1.2-1.2,1.9-2.1,1.9
			c-1,0-1.3-0.8-1-2.1l0.6-2.7c0.4-1.5,0.4-2.3-0.7-2.3c-1.2,0-2.6,1.5-3.3,4.4L-212.8,487.6z"/>
		<path class="st0" d="M-202.2,485.7c1-1.3,1.9-3.1,2.7-4.7c0.2-0.4,0.3-0.6,0.1-0.9l-0.2-0.3c0-0.1,0-0.2,0.1-0.2h2.4
			c0.1,0,0,0.1,0,0.2l-0.5,0.4c-0.2,0.1-0.3,0.3-0.4,0.5c-1.3,2.5-2.8,4.8-4.1,6.5c-0.3,0.4-0.4,0.6-0.9,0.7l-0.3,0
			c-0.2-2.4-0.6-5-1.1-7.1c-0.1-0.3-0.2-0.5-0.4-0.6l-0.4-0.4c-0.1,0,0-0.1,0.1-0.2l1.7-0.2c0.3,0,0.4,0,0.5,0.8
			C-202.5,481.9-202.3,483.8-202.2,485.7z"/>
		<path class="st0" d="M-196.1,481.1c0-0.2,0-0.4-0.1-0.5l-0.5-0.5c-0.1-0.1,0-0.2,0.1-0.2l2.7-0.3v0.1c-0.6,1-1,3-1.1,3.4l-0.7,3
			c0,0.2-0.1,0.7,0.2,0.7c0.3,0,0.6-0.4,1.1-1.1l0.3,0.2c-0.6,1.2-1.2,1.9-2.1,1.9c-1,0-1.3-0.8-1-2.1L-196.1,481.1z M-194.5,476.5
			c0.5,0,0.9,0.5,0.9,1.1c0,0.6-0.5,1.1-1,1.1c-0.6,0-0.9-0.5-0.9-1.1C-195.5,477-195,476.5-194.5,476.5z"/>
		<path class="st0" d="M-188.1,480.8c-1.2,0-2.5,1.7-3.2,4.5l-0.3,1.4c0,0.2,0,0.4,0.1,0.5l0.4,0.5c0.1,0.1,0,0.2,0,0.2h-2.8
			c-0.1,0-0.1-0.1,0-0.1l0.3-0.2c0.2-0.1,0.3-0.3,0.4-0.6l1.3-6c0-0.2,0-0.4-0.1-0.5l-0.5-0.5c0-0.1,0-0.2,0.1-0.2l1.8-0.2
			c0.3,0,0.5,0.1,0.2,1.2l-0.2,0.8l0.1,0c1-1.4,2.1-1.9,3-1.9c0.4,0,0.8,0,1.1,0.1c0,0.6-0.4,1.4-0.7,1.9l-0.2,0
			C-187.3,480.9-187.8,480.8-188.1,480.8z"/>
		<path class="st0" d="M-178.8,482.8c-0.1,2.4-2.2,5.1-4.7,5.1c-2.1,0-3.1-1.5-3-3.3c0.1-2.4,2.2-5.1,4.7-5.1
			C-179.7,479.5-178.7,481-178.8,482.8z M-180.5,482.8c0.1-1.4-0.3-2.3-1.4-2.3c-1.8,0-3,2.7-3.1,4.2c-0.2,1.4,0.3,2.3,1.3,2.3
			C-181.8,487-180.6,484.3-180.5,482.8z"/>
		<path class="st0" d="M-176.6,487.6c0,0.1-0.1,0.2-0.2,0.2h-1.9c-0.1,0-0.1-0.1,0-0.2l0.5-0.4c0.2-0.1,0.2-0.4,0.3-0.7l1.3-5.7
			c0-0.2,0-0.4-0.1-0.5l-0.5-0.5c0-0.1,0-0.1,0.1-0.2l1.8-0.2c0.3,0,0.5,0.1,0.2,1.2l-0.2,0.8l0.1,0c1-1.4,2.1-1.9,3-1.9
			c1.6,0,2.3,1.1,1.7,3.5l-0.8,3.2c0,0.2-0.1,0.7,0.2,0.7c0.3,0,0.6-0.4,1.1-1.1l0.3,0.2c-0.6,1.2-1.2,1.9-2.1,1.9
			c-1,0-1.3-0.8-1-2.1l0.6-2.7c0.4-1.5,0.4-2.3-0.7-2.3c-1.2,0-2.6,1.5-3.3,4.4L-176.6,487.6z"/>
		<path class="st0" d="M-169.3,487.8c-0.1,0-0.1-0.1,0-0.2l0.5-0.4c0.2-0.1,0.2-0.4,0.3-0.7l1.3-5.7c0-0.2,0-0.4-0.1-0.5l-0.5-0.5
			c0-0.1,0-0.1,0.1-0.2l1.8-0.2c0.3,0,0.4,0.1,0.2,1.2l-0.2,0.8h0c0.8-1.3,1.8-1.9,2.8-1.9c1.3,0,1.8,0.9,1.6,2.1l0.1-0.2
			c0.8-1.3,1.8-1.9,2.8-1.9c1.2,0,2.1,1,1.5,3.4l-0.8,3.4c0,0.2-0.1,0.7,0.2,0.7c0.3,0,0.6-0.4,1.1-1.1l0.3,0.2
			c-0.6,1.2-1.2,1.9-2.1,1.9c-1,0-1.3-0.8-1-2.1l0.8-3.5c0.2-1.1,0-1.6-0.7-1.6c-0.9,0-2.2,1.5-2.7,3.4l-0.7,3.4
			c0,0.1-0.1,0.2-0.2,0.2h-1.3c-0.1,0-0.1,0-0.1-0.1l1.2-5.3c0.2-1.1,0-1.6-0.7-1.6c-0.9,0-2.2,1.5-2.7,3.4l-0.8,3.4
			c0,0.1-0.1,0.2-0.2,0.2H-169.3z"/>
		<path class="st0" d="M-150.7,479.5c1.4,0,2.6,0.8,2.5,2c-0.1,2.4-3.6,2.8-5.6,2.9c-0.2,1.7,0.6,2.4,1.9,2.4c0.8,0,1.9-0.5,2.9-1.5
			l0.2,0.2c-1.1,1.8-2.6,2.4-3.8,2.4c-1.6,0-3-1.2-2.9-3.2C-155.2,481.5-152.7,479.5-150.7,479.5z M-153.6,483.6
			c2.3-0.1,3.9-0.8,3.9-2c0-0.6-0.5-0.9-1.1-0.9C-152.2,480.6-153.2,482.1-153.6,483.6z"/>
		<path class="st0" d="M-146.2,487.6c0,0.1-0.1,0.2-0.2,0.2h-1.9c-0.1,0-0.1-0.1,0-0.2l0.5-0.4c0.2-0.1,0.2-0.4,0.3-0.7l1.3-5.7
			c0-0.2,0-0.4-0.1-0.5l-0.5-0.5c0-0.1,0-0.1,0.1-0.2l1.8-0.2c0.3,0,0.5,0.1,0.2,1.2l-0.2,0.8l0.1,0c1-1.4,2.1-1.9,3-1.9
			c1.6,0,2.3,1.1,1.7,3.5l-0.8,3.2c0,0.2-0.1,0.7,0.2,0.7c0.3,0,0.6-0.4,1.1-1.1l0.3,0.2c-0.6,1.2-1.2,1.9-2.1,1.9
			c-1,0-1.3-0.8-1-2.1l0.6-2.7c0.4-1.5,0.4-2.3-0.7-2.3c-1.2,0-2.6,1.5-3.3,4.4L-146.2,487.6z"/>
		<path class="st0" d="M-136,486.1c-0.1,0.3-0.2,0.9,0.3,0.9c0.4,0,0.8-0.5,1.5-1.5l0.3,0.2c-0.7,1.3-1.4,2.2-2.4,2.2
			c-1.1,0-1.5-0.9-1.1-2.3l1.1-4.9h-1.3l0.3-1h1.2l0.4-1.6l1.7-0.6l-0.5,2.2h2.3l-0.3,1h-2.2L-136,486.1z"/>
		<path class="st0" d="M-125.8,486.2c0,0.2-0.1,0.7,0.2,0.7c0.3,0,0.6-0.4,1.1-1.1l0.3,0.2c-0.6,1.2-1.2,1.9-2,1.9
			c-1.1,0-1.2-1-0.9-2.1l0,0c-1.1,1.6-2,2.1-3.1,2.1c-1.6,0-2.9-1.9-2.1-4.5c0.6-1.8,2.2-3.9,5.1-3.9c0.7,0,2.1,0.3,3.2,0.8l0,0.1
			c-0.5,0.6-0.6,1.2-0.7,1.5L-125.8,486.2z M-126.1,480.7c-0.4-0.1-0.9-0.2-1.3-0.2c-1.6,0-2.9,1.3-3.4,2.8c-0.7,1.9,0,3.3,1.1,3.3
			c1.2,0,2.6-1.5,3.3-4.4L-126.1,480.7z"/>
		<path class="st0" d="M-121,477.1c0-0.2,0-0.4-0.1-0.5l-0.5-0.5c0-0.1,0-0.2,0.1-0.2l2.7-0.3l0,0.1c-0.6,1-1,3-1.1,3.4l-1.7,7
			c0,0.2-0.1,0.7,0.2,0.7c0.3,0,0.6-0.4,1.1-1.1l0.3,0.2c-0.6,1.2-1.2,1.9-2.1,1.9c-1,0-1.3-0.8-1-2.1L-121,477.1z"/>
		<path class="st0" d="M-109.4,487.7c0.8,0.3,2.3,1.1,3.8,1.1c0.4,0,1.1-0.1,1.7-0.4l0.1,0c-0.2,1.2-1.2,2-2.4,1.9
			c-1.2,0-2.5-0.9-4.4-1.9l-1-0.5c-2.2-0.3-4-2.2-3.2-5.6c0.8-3.5,3.8-6,6.9-6c2.4,0,4.6,2,3.8,5.6
			C-104.7,484.8-106.9,487-109.4,487.7z M-112.7,481.7c-0.8,2.7,0,5.2,2.1,5.2c1.9,0,3.8-1.9,4.5-4.4c0.8-2.7,0-5.1-2.1-5.1
			C-110.2,477.3-112,479.2-112.7,481.7z"/>
		<path class="st0" d="M-96.4,479.7c0-0.1,0.1-0.1,0.2-0.2l1.3-0.1c0.1,0,0.1,0,0.1,0.1l-1.5,6.7c0,0.2-0.1,0.7,0.2,0.7
			c0.3,0,0.6-0.4,1.1-1.1l0.3,0.2c-0.6,1.2-1.2,1.9-2,1.9c-1.1,0-1.2-1-0.9-2.1l0,0c-1,1.5-2.2,2.1-3.1,2.1c-1.6,0-2.3-1.1-1.7-3.5
			l0.9-3.5c0-0.2,0-0.4-0.1-0.5l-0.5-0.5c0-0.1,0-0.2,0.1-0.2l2-0.2c0.3,0,0.4,0.1,0.2,1.2l-0.9,3.6c-0.4,1.5-0.4,2.3,0.7,2.3
			c1.2,0,2.6-1.5,3.3-4.4L-96.4,479.7z"/>
		<path class="st0" d="M-86.8,486.2c0,0.2-0.1,0.7,0.2,0.7c0.3,0,0.6-0.4,1.1-1.1l0.3,0.2c-0.6,1.2-1.2,1.9-2,1.9
			c-1.1,0-1.2-1-0.9-2.1l0,0c-1.1,1.6-2,2.1-3.1,2.1c-1.6,0-2.9-1.9-2.1-4.5c0.6-1.8,2.2-3.9,5.1-3.9c0.7,0,2.1,0.3,3.2,0.8l0,0.1
			c-0.5,0.6-0.6,1.2-0.7,1.5L-86.8,486.2z M-87,480.7c-0.4-0.1-0.9-0.2-1.3-0.2c-1.6,0-2.9,1.3-3.4,2.8c-0.7,1.9,0,3.3,1.1,3.3
			c1.2,0,2.6-1.5,3.3-4.4L-87,480.7z"/>
		<path class="st0" d="M-82,477.1c0-0.2,0-0.4-0.1-0.5l-0.5-0.5c0-0.1,0-0.2,0.1-0.2l2.7-0.3l0,0.1c-0.6,1-1,3-1.1,3.4l-1.7,7
			c0,0.2-0.1,0.7,0.2,0.7c0.3,0,0.6-0.4,1.1-1.1l0.3,0.2c-0.6,1.2-1.2,1.9-2.1,1.9c-1,0-1.3-0.8-1-2.1L-82,477.1z"/>
		<path class="st0" d="M-78.6,481.1c0-0.2,0-0.4-0.1-0.5l-0.5-0.5c-0.1-0.1,0-0.2,0.1-0.2l2.7-0.3v0.1c-0.6,1-1,3-1.1,3.4l-0.7,3
			c0,0.2-0.1,0.7,0.2,0.7c0.3,0,0.6-0.4,1.1-1.1l0.3,0.2c-0.6,1.2-1.2,1.9-2.1,1.9c-1,0-1.3-0.8-1-2.1L-78.6,481.1z M-76.9,476.5
			c0.5,0,0.9,0.5,0.9,1.1c0,0.6-0.5,1.1-1,1.1s-0.9-0.5-0.9-1.1C-77.9,477-77.5,476.5-76.9,476.5z"/>
		<path class="st0" d="M-73.7,486.1c-0.1,0.3-0.2,0.9,0.3,0.9c0.4,0,0.8-0.5,1.5-1.5l0.3,0.2c-0.7,1.3-1.4,2.2-2.4,2.2
			c-1.1,0-1.5-0.9-1.1-2.3l1.1-4.9h-1.3l0.3-1h1.2l0.4-1.6l1.7-0.6l-0.5,2.2h2.3l-0.3,1h-2.2L-73.7,486.1z"/>
		<path class="st0" d="M-66.6,485.6l2.9-4.6c0.2-0.3,0.3-0.6,0.2-0.9l-0.2-0.4c0-0.1,0-0.2,0.1-0.2h2.3c0.1,0,0.1,0.1,0,0.2
			l-0.6,0.4c-0.2,0.1-0.3,0.3-0.4,0.5l-5.4,8.5c-0.6,1-1.1,1.6-1.7,1.9c-0.6,0.1-1.6-0.1-1.9-0.5l0.1-0.2c0.8-0.1,1.9-0.5,2.6-1.7
			l0.8-1.3c-0.3-2.3-0.6-4.6-1-6.6c-0.1-0.3-0.2-0.5-0.4-0.6l-0.4-0.4c-0.1,0,0-0.1,0.1-0.2l1.7-0.2c0.3,0,0.4,0,0.5,0.8
			C-66.9,481.9-66.7,483.8-66.6,485.6z"/>
	</g>
</g>
</svg>
